<svg width="960" height="335" viewBox="0 0 960 335" fill="none" xmlns="http://www.w3.org/2000/svg">
<path fill-rule="evenodd" clip-rule="evenodd" d="M952.5 0.75H7.5C3.77208 0.75 0.75 3.77207 0.75 7.49999V327.5C0.75 331.228 3.77208 334.25 7.5 334.25H952.5C956.228 334.25 959.25 331.228 959.25 327.5V7.5C959.25 3.77208 956.228 0.75 952.5 0.75ZM7.5 0C3.35786 0 0 3.35786 0 7.49999V327.5C0 331.642 3.35786 335 7.5 335H952.5C956.642 335 960 331.642 960 327.5V7.5C960 3.35786 956.642 0 952.5 0H7.5Z" fill="#C0C7CD"/>
</svg>
