<svg width="102" height="19" viewBox="0 0 102 19" fill="none" xmlns="http://www.w3.org/2000/svg">
<path d="M97.1836 13.8152V13.0185C97.5578 12.9944 97.8475 12.9159 98.0527 12.7831C98.27 12.6503 98.4269 12.4512 98.5235 12.1856C98.6201 11.908 98.6684 11.5519 98.6684 11.1173L98.6321 3.00562L96.5137 4.3274L96.061 3.60314L99.791 0.850952H100.57L100.588 11.5157C100.588 11.7692 100.582 12.0227 100.57 12.2761C100.57 12.5176 100.557 12.7228 100.533 12.8918C100.763 12.8676 101.01 12.8555 101.276 12.8555C101.541 12.8435 101.783 12.8314 102 12.8193V13.8152H97.1836Z" fill="black"/>
<path d="M80.4271 14.0687L73.6914 5.12408C73.5587 4.96716 73.4319 4.8042 73.3112 4.63521C73.1905 4.46621 73.0637 4.29118 72.931 4.11012H72.9129L72.9672 11.1535C72.9672 11.4553 72.9611 11.7571 72.9491 12.0589C72.9491 12.3606 72.937 12.6383 72.9129 12.8918C73.1181 12.8676 73.3414 12.8555 73.5828 12.8555C73.8363 12.8435 74.0536 12.8314 74.2346 12.8193V13.8152H70.6495V13.0185C70.9875 13.0185 71.241 12.9521 71.41 12.8193C71.5911 12.6866 71.7118 12.5115 71.7722 12.2942C71.8446 12.077 71.8808 11.8235 71.8808 11.5338V3.42207C71.8808 3.18065 71.8808 2.93923 71.8808 2.69781C71.8808 2.45639 71.8868 2.24515 71.8989 2.06409C71.7058 2.07616 71.4885 2.08823 71.2471 2.1003C71.0177 2.11237 70.8125 2.12444 70.6314 2.13651V1.14065H73.0215L79.395 9.52396C79.6002 9.78952 79.7813 10.037 79.9382 10.2663C80.1072 10.4957 80.2701 10.713 80.4271 10.9182H80.4452L80.4633 3.47639C80.4633 3.21083 80.4693 2.95734 80.4814 2.71592C80.4934 2.46243 80.5055 2.24515 80.5176 2.06409C80.3003 2.07616 80.071 2.08823 79.8295 2.1003C79.5881 2.11237 79.3769 2.12444 79.1958 2.13651V1.14065H82.7809V1.93734C82.3946 1.94941 82.111 2.03391 81.9299 2.19083C81.7609 2.33568 81.6523 2.55296 81.604 2.84267C81.5678 3.1203 81.5497 3.48846 81.5497 3.94716L81.5315 14.0687H80.4271ZM86.366 7.02526C85.8107 7.02526 85.3158 6.89852 84.8812 6.64503C84.4467 6.39154 84.1027 6.04148 83.8492 5.59485C83.5957 5.14822 83.4689 4.64124 83.4689 4.07391C83.4689 3.45828 83.5957 2.90906 83.8492 2.42622C84.1027 1.94338 84.4467 1.56314 84.8812 1.28551C85.3279 0.995804 85.8409 0.850952 86.4203 0.850952C86.9876 0.850952 87.4825 0.977697 87.905 1.23119C88.3396 1.48468 88.6776 1.84077 88.919 2.29947C89.1725 2.7461 89.2992 3.26515 89.2992 3.85663C89.3113 4.47225 89.1906 5.02148 88.9371 5.50432C88.6957 5.98716 88.3517 6.36136 87.905 6.62692C87.4705 6.89248 86.9575 7.02526 86.366 7.02526ZM86.4927 6.26479C86.9152 6.25272 87.2411 6.04751 87.4705 5.64917C87.7119 5.25083 87.8326 4.73781 87.8326 4.11012C87.8326 3.65142 87.7783 3.22894 87.6696 2.84267C87.5731 2.45639 87.4162 2.14858 87.1989 1.91923C86.9937 1.67781 86.716 1.56314 86.366 1.57521C85.9314 1.59935 85.5934 1.8106 85.352 2.20894C85.1106 2.60728 84.9899 3.1203 84.9899 3.74799C84.9899 4.21876 85.0442 4.64728 85.1528 5.03355C85.2615 5.41982 85.4244 5.7216 85.6417 5.93887C85.8711 6.15615 86.1547 6.26479 86.4927 6.26479ZM83.2517 9.70502V8.22029H89.7519V9.6507L83.2517 9.70502Z" fill="black"/>
<path d="M60.6337 13.8153C60.6095 13.6222 60.5914 13.4532 60.5794 13.3083C60.5673 13.1635 60.5492 13.0126 60.5251 12.8556C60.1146 13.2661 59.674 13.5799 59.2033 13.7972C58.7325 14.0024 58.2436 14.105 57.7367 14.105C56.8675 14.105 56.2097 13.8938 55.763 13.4713C55.3285 13.0367 55.1112 12.4996 55.1112 11.8598C55.1112 11.3045 55.2742 10.8217 55.6001 10.4113C55.926 10.0009 56.3545 9.66891 56.8856 9.41542C57.4168 9.14985 57.9962 8.95672 58.6239 8.83601C59.2516 8.70323 59.8672 8.63684 60.4707 8.63684V7.56855C60.4707 7.18228 60.4345 6.82619 60.3621 6.50027C60.2897 6.16228 60.1388 5.89069 59.9094 5.68548C59.6922 5.4682 59.3481 5.35956 58.8774 5.35956C58.5635 5.34749 58.2497 5.40785 57.9358 5.54063C57.622 5.66134 57.3806 5.86655 57.2116 6.15625C57.3081 6.25282 57.3685 6.36749 57.3926 6.50027C57.4288 6.62098 57.4469 6.73566 57.4469 6.8443C57.4469 7.01329 57.3745 7.20643 57.2297 7.4237C57.0848 7.62891 56.8374 7.72548 56.4873 7.71341C56.1976 7.71341 55.9743 7.61684 55.8174 7.4237C55.6725 7.2185 55.6001 6.98311 55.6001 6.71755C55.6001 6.28299 55.757 5.89672 56.0709 5.55874C56.3968 5.22075 56.8374 4.95519 57.3926 4.76205C57.9479 4.56891 58.5695 4.47235 59.2576 4.47235C60.2957 4.47235 61.0682 4.74394 61.5752 5.28714C62.0943 5.83033 62.3538 6.68737 62.3538 7.85826C62.3538 8.29281 62.3538 8.70926 62.3538 9.10761C62.3538 9.50595 62.3478 9.90429 62.3357 10.3026C62.3357 10.701 62.3357 11.1235 62.3357 11.5701C62.3357 11.7512 62.3297 11.9564 62.3176 12.1857C62.3055 12.4151 62.2874 12.6565 62.2633 12.91C62.4685 12.8979 62.6797 12.8858 62.897 12.8738C63.1143 12.8617 63.3195 12.8556 63.5126 12.8556V13.8153H60.6337ZM60.4707 9.46974C60.0845 9.49388 59.6861 9.5482 59.2757 9.63269C58.8774 9.71719 58.5152 9.84394 58.1893 10.0129C57.8634 10.1819 57.5978 10.3992 57.3926 10.6648C57.1995 10.9303 57.1029 11.2502 57.1029 11.6244C57.1271 12.0348 57.2598 12.3366 57.5013 12.5297C57.7548 12.7229 58.0505 12.8194 58.3885 12.8194C58.811 12.8194 59.1852 12.741 59.5111 12.584C59.837 12.4151 60.1569 12.1857 60.4707 11.896C60.4587 11.7632 60.4526 11.6304 60.4526 11.4977C60.4526 11.3528 60.4526 11.2019 60.4526 11.045C60.4526 10.9364 60.4526 10.7372 60.4526 10.4475C60.4647 10.1457 60.4707 9.81979 60.4707 9.46974Z" fill="black"/>
<path d="M49.5928 14.0868C48.7841 14.0868 48.0538 13.8756 47.4019 13.4531C46.7622 13.0306 46.2491 12.3909 45.8629 11.5338C45.4887 10.6768 45.3016 9.60247 45.3016 8.31088C45.3016 7.33313 45.4042 6.39762 45.6094 5.50437C45.8146 4.61112 46.1345 3.8265 46.569 3.15053C47.0156 2.46248 47.589 1.96154 48.2891 1.64769C48.6633 1.45455 49.0436 1.32177 49.4298 1.24935C49.8282 1.16485 50.2145 1.09846 50.5887 1.05018C50.9629 1.00189 51.3009 0.92343 51.6026 0.814791C51.8682 0.730295 52.0674 0.639762 52.2001 0.543194C52.345 0.434555 52.4717 0.25349 52.5804 0L53.2865 0.217277C53.19 0.688046 53.0934 1.07432 52.9968 1.37609C52.9003 1.67787 52.7614 1.92532 52.5804 2.11846C52.3993 2.29952 52.1217 2.45645 51.7475 2.58923C51.4336 2.68579 51.1077 2.75822 50.7697 2.8065C50.4438 2.85479 50.1119 2.90307 49.7739 2.95136C49.448 2.98757 49.11 3.06 48.7599 3.16863C47.9512 3.41005 47.3355 3.911 46.913 4.67147C46.4906 5.43194 46.2612 6.3433 46.225 7.40555H46.3336C46.6354 6.66922 47.0881 6.10188 47.6916 5.70354C48.2952 5.3052 49.0134 5.10603 49.8463 5.10603C50.6068 5.10603 51.2888 5.26295 51.8923 5.5768C52.5079 5.89064 52.9968 6.35537 53.359 6.971C53.7211 7.58662 53.9021 8.34105 53.9021 9.23431C53.9021 10.2121 53.709 11.0691 53.3227 11.8054C52.9485 12.5418 52.4355 13.1091 51.7837 13.5074C51.1319 13.8937 50.4016 14.0868 49.5928 14.0868ZM49.629 13.1996C50.1843 13.1996 50.6188 13.0306 50.9327 12.6926C51.2586 12.3547 51.488 11.9201 51.6207 11.389C51.7656 10.8458 51.838 10.2905 51.838 9.72318C51.838 9.11963 51.7595 8.52815 51.6026 7.94875C51.4457 7.36934 51.1922 6.89253 50.8422 6.51833C50.5042 6.14413 50.0455 5.95703 49.4661 5.95703C48.9712 5.95703 48.5607 6.11396 48.2348 6.4278C47.921 6.72958 47.6856 7.12188 47.5287 7.60472C47.3717 8.08756 47.2933 8.60058 47.2933 9.14377C47.2933 9.92839 47.3778 10.6285 47.5468 11.2441C47.7278 11.8477 47.9934 12.3305 48.3435 12.6926C48.6935 13.0427 49.122 13.2117 49.629 13.1996Z" fill="black"/>
<path d="M39.3065 14.105C38.4494 14.105 37.6769 13.9119 36.9888 13.5256C36.3008 13.1393 35.7516 12.6022 35.3411 11.9141C34.9428 11.214 34.7436 10.4113 34.7436 9.50595C34.7436 8.5282 34.9428 7.66512 35.3411 6.91672C35.7516 6.15625 36.3008 5.55873 36.9888 5.12418C37.6769 4.68962 38.4434 4.47235 39.2884 4.47235C40.1454 4.47235 40.9179 4.67152 41.606 5.06986C42.294 5.45613 42.8372 5.99933 43.2356 6.69944C43.646 7.38749 43.8512 8.18418 43.8512 9.0895C43.8512 10.0431 43.652 10.9001 43.2537 11.6606C42.8553 12.4211 42.3121 13.0186 41.6241 13.4532C40.9481 13.8877 40.1756 14.105 39.3065 14.105ZM39.4332 13.1997C40.0126 13.1876 40.4653 13.0065 40.7912 12.6565C41.1292 12.3064 41.3706 11.8598 41.5155 11.3166C41.6603 10.7613 41.7327 10.188 41.7327 9.59648C41.7327 9.07743 41.6844 8.57045 41.5879 8.07554C41.5034 7.56855 41.3646 7.10986 41.1714 6.69944C40.9783 6.28903 40.7248 5.96311 40.411 5.72169C40.0971 5.4682 39.7169 5.34749 39.2703 5.35956C38.7029 5.35956 38.2382 5.53459 37.8761 5.88465C37.526 6.23471 37.2665 6.68737 37.0975 7.24264C36.9406 7.78583 36.8621 8.36524 36.8621 8.98086C36.8621 9.69305 36.9526 10.369 37.1337 11.0088C37.3148 11.6485 37.5924 12.1736 37.9666 12.584C38.3529 12.9945 38.8417 13.1997 39.4332 13.1997Z" fill="black"/>
<path d="M23.8498 18.4324V17.672C24.2119 17.672 24.4654 17.5875 24.6102 17.4185C24.7551 17.2495 24.8396 17.0141 24.8637 16.7123C24.8999 16.4106 24.918 16.0605 24.918 15.6622L24.9361 7.27885C24.9361 7.08572 24.9422 6.88051 24.9543 6.66323C24.9663 6.43388 24.9844 6.21057 25.0086 5.99329C24.8034 6.00536 24.5861 6.01743 24.3567 6.0295C24.1274 6.0295 23.9161 6.03554 23.723 6.04761V5.08797C24.2662 5.08797 24.6887 5.06382 24.9905 5.01554C25.3043 4.95519 25.5397 4.8888 25.6966 4.81637C25.8656 4.74394 25.9924 4.66548 26.0769 4.58098H26.7287C26.7408 4.70169 26.7528 4.84655 26.7649 5.01554C26.777 5.18453 26.789 5.35353 26.8011 5.52252C27.1874 5.18453 27.6159 4.92501 28.0867 4.74394C28.5574 4.56288 29.0282 4.47235 29.499 4.47235C30.1991 4.47235 30.8389 4.65945 31.4183 5.03365C32.0097 5.39578 32.4805 5.91483 32.8306 6.5908C33.1927 7.26678 33.3738 8.0695 33.3738 8.99897C33.3738 10.0009 33.1686 10.8881 32.7581 11.6606C32.3477 12.4332 31.7925 13.0367 31.0923 13.4713C30.4043 13.8938 29.6378 14.105 28.7928 14.105C28.4066 14.105 28.0505 14.0567 27.7245 13.9601C27.3986 13.8756 27.0908 13.7549 26.8011 13.598V16.1872C26.8011 16.4045 26.7951 16.6218 26.783 16.8391C26.783 17.0684 26.7709 17.2978 26.7468 17.5271C26.9399 17.5151 27.1331 17.503 27.3262 17.4909C27.5314 17.4909 27.7185 17.4849 27.8875 17.4728V18.4324H23.8498ZM28.6661 13.1635C29.2455 13.1635 29.7223 12.9945 30.0965 12.6565C30.4828 12.3064 30.7664 11.8417 30.9475 11.2623C31.1406 10.6708 31.2372 10.0069 31.2372 9.27056C31.2372 8.65494 31.1527 8.0695 30.9837 7.51424C30.8147 6.9469 30.5431 6.4882 30.1689 6.13814C29.8068 5.77601 29.33 5.60098 28.7385 5.61305C28.3643 5.61305 28.0082 5.70359 27.6702 5.88465C27.3322 6.06572 27.0486 6.28903 26.8192 6.55459C26.8192 6.71151 26.8192 6.88051 26.8192 7.06157C26.8313 7.24264 26.8373 7.47199 26.8373 7.74962C26.8373 8.01518 26.8373 8.3592 26.8373 8.78169C26.8373 9.1921 26.8313 9.71116 26.8192 10.3388C26.8192 10.9545 26.8192 11.7029 26.8192 12.584C27.0606 12.7651 27.3383 12.91 27.6521 13.0186C27.978 13.1272 28.316 13.1755 28.6661 13.1635Z" fill="black"/>
<path d="M12.6258 13.8153V13.0548C12.9879 13.0548 13.2414 12.9703 13.3862 12.8013C13.5311 12.6323 13.6216 12.3969 13.6578 12.0951C13.694 11.7934 13.7122 11.4433 13.7122 11.045V7.00722C13.7122 6.78994 13.7122 6.56663 13.7122 6.33728C13.7242 6.10793 13.7423 5.88462 13.7665 5.66734L12.6258 5.72166V4.76201H22.4576V5.52249C22.1075 5.52249 21.854 5.60698 21.6971 5.77598C21.5523 5.94497 21.4617 6.18035 21.4255 6.48213C21.4014 6.7839 21.3893 7.13396 21.3893 7.53231L21.3531 11.5701C21.3531 11.7873 21.3471 12.0106 21.335 12.24C21.335 12.4573 21.3169 12.6806 21.2807 12.9099L22.4395 12.8556V13.8153H18.3836V13.0548C18.7458 13.0548 18.9992 12.9703 19.1441 12.8013C19.2889 12.6323 19.3795 12.3969 19.4157 12.0951C19.4519 11.7934 19.47 11.4433 19.47 11.045V7.00722C19.47 6.78994 19.4761 6.57266 19.4881 6.35538C19.5002 6.13811 19.5183 5.91479 19.5424 5.68544L16.6997 5.72166C16.3376 5.72166 16.0841 5.79408 15.9393 5.93893C15.7944 6.07172 15.7039 6.27692 15.6677 6.55456C15.6435 6.82012 15.6254 7.14 15.6133 7.5142L15.5952 11.5701C15.5952 11.7873 15.5892 12.0106 15.5771 12.24C15.5771 12.4573 15.559 12.6806 15.5228 12.9099L16.6816 12.8556V13.8153H12.6258Z" fill="black"/>
<path d="M9.99478 5.1784C9.862 4.09201 9.4878 3.25911 8.87218 2.67971C8.25656 2.08823 7.45384 1.78645 6.46401 1.77438C5.83632 1.77438 5.25692 1.9132 4.72579 2.19083C4.19467 2.46846 3.73597 2.86077 3.3497 3.36775C2.96343 3.86266 2.66165 4.45414 2.44438 5.14219C2.23917 5.81816 2.13657 6.56053 2.13657 7.36929C2.13657 8.46775 2.3297 9.4455 2.71597 10.3025C3.10224 11.1475 3.63337 11.8054 4.30934 12.2761C4.99739 12.7469 5.77597 12.9823 6.64508 12.9823C7.41762 12.9823 8.17809 12.8012 8.9265 12.4391C9.68697 12.0649 10.3147 11.5398 10.8096 10.8638L11.4071 11.3708C10.8639 12.1192 10.2845 12.6926 9.66886 13.0909C9.05324 13.4893 8.43762 13.7548 7.822 13.8876C7.21845 14.0325 6.66922 14.1049 6.17431 14.1049C5.26899 14.1049 4.43609 13.9419 3.67562 13.616C2.91514 13.2901 2.25728 12.8374 1.70201 12.258C1.15882 11.6666 0.73633 10.9845 0.434556 10.212C0.144852 9.42739 0 8.58242 0 7.6771C0 6.83213 0.132781 6.00526 0.398343 5.19651C0.663904 4.38775 1.05621 3.65746 1.57526 3.00562C2.09432 2.34172 2.74615 1.81663 3.53076 1.43036C4.32745 1.04409 5.25088 0.850952 6.30106 0.850952C6.91668 0.850952 7.51419 0.935448 8.0936 1.10444C8.68508 1.27344 9.25241 1.53296 9.79561 1.88302L9.70508 0.977696H10.8277V5.1784H9.99478Z" fill="black"/>
</svg>
