<svg width="205" height="19" viewBox="0 0 205 19" fill="none" xmlns="http://www.w3.org/2000/svg">
<path d="M200.72 13.0733C199.908 13.0733 199.224 12.9023 198.668 12.5604C198.112 12.2077 197.669 11.7481 197.337 11.1817C197.006 10.6046 196.765 9.97402 196.616 9.29003C196.477 8.60604 196.407 7.92739 196.407 7.25409C196.407 6.58079 196.493 5.8968 196.664 5.20212C196.846 4.50744 197.118 3.87155 197.482 3.29443C197.845 2.70663 198.299 2.23638 198.844 1.8837C199.389 1.52033 200.036 1.33865 200.784 1.33865C201.564 1.33865 202.221 1.51499 202.756 1.86767C203.301 2.22035 203.734 2.68525 204.054 3.26237C204.386 3.8288 204.626 4.45401 204.776 5.138C204.925 5.82199 205 6.50063 205 7.17393C205 7.83655 204.915 8.51519 204.744 9.20987C204.583 9.90455 204.327 10.5458 203.974 11.1336C203.632 11.7107 203.189 12.181 202.644 12.5443C202.109 12.897 201.468 13.0733 200.72 13.0733ZM200.816 12.1115C201.211 12.1115 201.543 11.9832 201.81 11.7267C202.077 11.4702 202.28 11.1282 202.419 10.7008C202.569 10.2626 202.676 9.77096 202.74 9.2259C202.804 8.67016 202.836 8.09839 202.836 7.51059C202.836 6.85866 202.804 6.22276 202.74 5.6029C202.686 4.98303 202.585 4.42729 202.435 3.93567C202.285 3.43337 202.072 3.03259 201.794 2.73335C201.527 2.4341 201.179 2.28448 200.752 2.28448C200.335 2.28448 199.988 2.41273 199.71 2.66922C199.443 2.92572 199.224 3.27306 199.053 3.71124C198.882 4.14942 198.759 4.64638 198.684 5.20212C198.62 5.74718 198.588 6.31895 198.588 6.91744C198.588 7.36631 198.604 7.83121 198.636 8.31214C198.668 8.79307 198.727 9.25797 198.812 9.70683C198.908 10.1557 199.037 10.5618 199.197 10.9252C199.368 11.2886 199.582 11.5771 199.838 11.7909C200.105 12.0046 200.431 12.1115 200.816 12.1115Z" fill="black"/>
<path d="M190.627 12.8168V11.9351C190.915 11.9245 191.145 11.8764 191.316 11.7909C191.498 11.7054 191.631 11.5557 191.717 11.342C191.802 11.1176 191.845 10.8023 191.845 10.3962L191.829 3.58299L190.033 4.68913L189.536 3.90361L193.031 1.33865H193.849V10.4763C193.849 10.7435 193.843 11 193.833 11.2458C193.833 11.4809 193.822 11.668 193.801 11.8069C193.993 11.7962 194.212 11.7855 194.458 11.7748C194.715 11.7641 194.912 11.7588 195.051 11.7588V12.8168H190.627Z" fill="black"/>
<path d="M176.872 17.1612L175.734 16.4238L184.807 0.681372L186.138 1.53101L176.872 17.1612Z" fill="black"/>
<path d="M171.324 12.8168V11.9351C171.612 11.9245 171.842 11.8764 172.013 11.7909C172.195 11.7054 172.328 11.5557 172.414 11.342C172.499 11.1176 172.542 10.8023 172.542 10.3962L172.526 3.58299L170.731 4.68913L170.234 3.90361L173.728 1.33865H174.546V10.4763C174.546 10.7435 174.541 11 174.53 11.2458C174.53 11.4809 174.519 11.668 174.498 11.8069C174.69 11.7962 174.909 11.7855 175.155 11.7748C175.412 11.7641 175.609 11.7588 175.748 11.7588V12.8168H171.324Z" fill="black"/>
<path d="M137.44 13.995C137.163 13.995 136.917 13.8868 136.701 13.6704C136.496 13.442 136.394 13.1654 136.394 12.8408C136.394 12.5162 136.502 12.2396 136.719 12.0112C136.935 11.7828 137.181 11.6685 137.458 11.6685C137.759 11.6685 138.005 11.7828 138.197 12.0112C138.402 12.2396 138.504 12.5162 138.504 12.8408C138.504 13.1654 138.396 13.442 138.179 13.6704C137.963 13.8868 137.716 13.995 137.44 13.995ZM137.44 6.72698C137.163 6.72698 136.917 6.61877 136.701 6.40235C136.496 6.17391 136.394 5.89737 136.394 5.57274C136.394 5.24812 136.502 4.97158 136.719 4.74314C136.935 4.5147 137.181 4.40048 137.458 4.40048C137.759 4.40048 138.005 4.5147 138.197 4.74314C138.402 4.97158 138.504 5.24812 138.504 5.57274C138.504 5.89737 138.396 6.17391 138.179 6.40235C137.963 6.61877 137.716 6.72698 137.44 6.72698Z" fill="black"/>
<path d="M130.299 13.977C129.53 13.977 128.826 13.7726 128.189 13.3638C127.564 12.943 127.065 12.3178 126.692 11.4882C126.319 10.6466 126.133 9.58855 126.133 8.31408C126.133 7.25603 126.241 6.26412 126.458 5.33833C126.686 4.41253 127.041 3.61299 127.522 2.93969C128.015 2.25436 128.658 1.76141 129.452 1.46083C129.752 1.34059 130.059 1.25643 130.371 1.20834C130.684 1.14822 130.997 1.10013 131.309 1.06406C131.634 1.01597 131.952 0.949837 132.265 0.865675C132.578 0.769489 132.812 0.667291 132.968 0.559081C133.137 0.450872 133.269 0.264512 133.365 0L133.996 0.198384C133.912 0.583128 133.828 0.913768 133.744 1.1903C133.66 1.46684 133.521 1.70129 133.329 1.89366C133.149 2.08603 132.848 2.25436 132.427 2.39864C132.103 2.50685 131.772 2.59101 131.435 2.65113C131.099 2.71124 130.774 2.76535 130.461 2.81344C130.149 2.84951 129.848 2.90963 129.56 2.99379C128.646 3.27032 127.979 3.81137 127.558 4.61693C127.149 5.41046 126.951 6.32423 126.963 7.35823H127.089C127.365 6.64886 127.786 6.08377 128.351 5.66295C128.929 5.24214 129.656 5.03173 130.534 5.03173C131.291 5.03173 131.97 5.19405 132.572 5.51867C133.173 5.83128 133.648 6.30019 133.996 6.92539C134.357 7.53858 134.537 8.29604 134.537 9.19779C134.537 10.1596 134.345 11.0013 133.96 11.7227C133.588 12.4441 133.077 13.0031 132.427 13.3999C131.79 13.7847 131.081 13.977 130.299 13.977ZM130.371 13.2917C130.96 13.2917 131.429 13.1234 131.778 12.7867C132.139 12.4381 132.397 11.9872 132.554 11.4341C132.71 10.881 132.788 10.3039 132.788 9.70277C132.788 9.04149 132.698 8.40425 132.517 7.79107C132.349 7.17788 132.073 6.67291 131.688 6.27614C131.315 5.87937 130.822 5.68099 130.209 5.68099C129.668 5.68099 129.223 5.8433 128.874 6.16793C128.526 6.49256 128.261 6.91938 128.081 7.44841C127.913 7.96541 127.828 8.52449 127.828 9.12565C127.828 9.99132 127.925 10.7368 128.117 11.362C128.309 11.9752 128.592 12.4501 128.965 12.7867C129.349 13.1234 129.818 13.2917 130.371 13.2917Z" fill="black"/>
<path d="M120.092 13.995C119.25 13.995 118.487 13.8027 117.802 13.4179C117.116 13.0212 116.569 12.4801 116.16 11.7948C115.764 11.0974 115.565 10.3039 115.565 9.41418C115.565 8.46434 115.764 7.61069 116.16 6.85322C116.557 6.09576 117.098 5.50061 117.784 5.06777C118.469 4.62291 119.238 4.40048 120.092 4.40048C120.934 4.40048 121.697 4.60487 122.382 5.01366C123.068 5.41043 123.615 5.95148 124.024 6.6368C124.432 7.32213 124.637 8.10364 124.637 8.98134C124.637 9.90713 124.432 10.7548 124.024 11.5243C123.627 12.2817 123.086 12.8829 122.401 13.3277C121.715 13.7726 120.946 13.995 120.092 13.995ZM120.236 13.2736C120.874 13.2736 121.379 13.0933 121.751 12.7326C122.124 12.3719 122.389 11.903 122.545 11.3259C122.713 10.7488 122.797 10.1416 122.797 9.50435C122.797 8.9633 122.743 8.43428 122.635 7.91728C122.539 7.38826 122.382 6.91334 122.166 6.49253C121.95 6.05969 121.667 5.71703 121.318 5.46454C120.982 5.21205 120.573 5.0858 120.092 5.0858C119.467 5.0858 118.956 5.26615 118.559 5.62685C118.162 5.98755 117.868 6.45646 117.675 7.03357C117.495 7.61069 117.405 8.22988 117.405 8.89116C117.405 9.6366 117.507 10.346 117.711 11.0193C117.916 11.6806 118.228 12.2216 118.649 12.6424C119.07 13.0632 119.599 13.2736 120.236 13.2736Z" fill="black"/>
<path d="M104.696 18.3054V17.7643C105.069 17.7643 105.327 17.6681 105.471 17.4758C105.616 17.2954 105.7 17.0369 105.724 16.7003C105.748 16.3756 105.76 15.9969 105.76 15.5641L105.796 6.85322C105.796 6.66085 105.796 6.46848 105.796 6.27611C105.808 6.08373 105.832 5.88535 105.868 5.68096C105.652 5.69298 105.435 5.705 105.219 5.71703C105.015 5.72905 104.804 5.74107 104.588 5.75309V4.99563C105.117 4.99563 105.514 4.97158 105.778 4.92349C106.055 4.8754 106.253 4.81528 106.373 4.74314C106.505 4.671 106.614 4.59285 106.698 4.50869H107.239C107.251 4.62892 107.263 4.7732 107.275 4.94152C107.287 5.09783 107.299 5.27818 107.311 5.48257C107.672 5.15794 108.099 4.89944 108.592 4.70707C109.096 4.50268 109.601 4.40048 110.106 4.40048C110.804 4.40048 111.453 4.58083 112.054 4.94152C112.655 5.30222 113.142 5.81922 113.515 6.49253C113.888 7.1538 114.074 7.94734 114.074 8.87313C114.074 9.89511 113.858 10.7908 113.425 11.5603C113.004 12.3298 112.445 12.931 111.748 13.3638C111.05 13.7846 110.293 13.995 109.475 13.995C109.054 13.995 108.664 13.9409 108.303 13.8327C107.954 13.7365 107.624 13.5923 107.311 13.3999V16.3937C107.311 16.6341 107.305 16.8445 107.293 17.0249C107.293 17.2173 107.275 17.4157 107.239 17.62C107.431 17.608 107.618 17.596 107.798 17.584C107.99 17.584 108.183 17.578 108.375 17.5659V18.3054H104.696ZM109.439 13.2736C110.016 13.2736 110.509 13.0993 110.918 12.7506C111.339 12.3899 111.657 11.903 111.874 11.2898C112.102 10.6646 112.217 9.95522 112.217 9.16169C112.217 8.51243 112.12 7.89323 111.928 7.30409C111.748 6.70293 111.453 6.21599 111.044 5.84327C110.647 5.47055 110.118 5.28419 109.457 5.28419C109.048 5.28419 108.652 5.38639 108.267 5.59078C107.894 5.78315 107.582 6.01761 107.329 6.29414C107.329 6.34223 107.329 6.41437 107.329 6.51056C107.341 6.59472 107.347 6.75102 107.347 6.97947C107.347 7.19588 107.347 7.52652 107.347 7.97139C107.347 8.40422 107.341 8.99336 107.329 9.7388C107.329 10.4842 107.329 11.4281 107.329 12.5703C107.63 12.7987 107.954 12.9731 108.303 13.0933C108.664 13.2135 109.042 13.2736 109.439 13.2736Z" fill="black"/>
<path d="M93.7626 13.7066V13.1655C94.1354 13.1655 94.3939 13.0753 94.5381 12.895C94.6824 12.7026 94.7666 12.4441 94.7906 12.1195C94.8267 11.7828 94.8447 11.3981 94.8447 10.9653V6.60082C94.8447 6.36035 94.8447 6.14995 94.8447 5.9696C94.8568 5.77723 94.8808 5.57884 94.9169 5.37445L93.7807 5.42855V4.68912H103.267V5.23017C102.906 5.23017 102.648 5.32635 102.492 5.51873C102.347 5.69908 102.263 5.95758 102.239 6.29423C102.215 6.61885 102.203 6.99759 102.203 7.43042L102.167 11.7949C102.167 12.0353 102.161 12.2517 102.149 12.4441C102.149 12.6245 102.131 12.8168 102.095 13.0212L103.231 12.9671V13.7066H99.5338V13.1655C99.9065 13.1655 100.165 13.0753 100.309 12.895C100.454 12.7026 100.538 12.4441 100.562 12.1195C100.598 11.7828 100.616 11.3981 100.616 10.9653L100.634 6.60082C100.634 6.36035 100.634 6.14995 100.634 5.9696C100.646 5.77723 100.67 5.57884 100.706 5.37445L97.4959 5.41052C97.1231 5.41052 96.8646 5.48867 96.7204 5.64497C96.5761 5.80127 96.4919 6.02972 96.4679 6.3303C96.4438 6.63088 96.4258 6.99759 96.4138 7.43042L96.3957 11.7949C96.3957 12.0353 96.3897 12.2517 96.3777 12.4441C96.3777 12.6245 96.3597 12.8168 96.3236 13.0212L97.4598 12.9671V13.7066H93.7626Z" fill="black"/>
<path d="M88.5646 13.995C87.759 13.995 87.0136 13.8147 86.3282 13.454C85.6549 13.0813 85.1139 12.5522 84.7051 11.8669C84.3083 11.1696 84.1099 10.334 84.1099 9.36007C84.1099 8.73486 84.2242 8.12769 84.4526 7.53855C84.681 6.94941 84.9997 6.42039 85.4084 5.95148C85.8293 5.47055 86.3282 5.09182 86.9053 4.81528C87.4825 4.53875 88.1197 4.40048 88.817 4.40048C89.4903 4.40048 90.0735 4.50268 90.5664 4.70707C91.0714 4.91147 91.4622 5.18199 91.7387 5.51864C92.0152 5.85529 92.1535 6.222 92.1535 6.61877C92.1535 6.88328 92.0814 7.11172 91.9371 7.30409C91.7928 7.48444 91.5824 7.57462 91.3059 7.57462C91.0053 7.58664 90.7889 7.49647 90.6566 7.30409C90.5364 7.0997 90.4763 6.91935 90.4763 6.76305C90.4763 6.64282 90.4943 6.52258 90.5304 6.40235C90.5664 6.27009 90.6386 6.14986 90.7468 6.04165C90.6506 5.75309 90.4823 5.54269 90.2418 5.41043C90.0013 5.26615 89.7488 5.17598 89.4843 5.13991C89.2318 5.09182 89.0214 5.06777 88.8531 5.06777C88.0355 5.06777 87.3442 5.39841 86.7791 6.05969C86.226 6.70894 85.9495 7.65878 85.9495 8.9092C85.9495 9.71476 86.0757 10.4301 86.3282 11.0553C86.5927 11.6806 86.9595 12.1735 87.4284 12.5342C87.8973 12.8829 88.4383 13.0572 89.0515 13.0572C89.6166 13.0572 90.1576 12.9069 90.6746 12.6063C91.1916 12.3058 91.5944 11.9391 91.883 11.5062L92.3519 11.8669C92.0393 12.3719 91.6605 12.7807 91.2157 13.0933C90.7828 13.4059 90.332 13.6343 89.8631 13.7786C89.4062 13.9229 88.9733 13.995 88.5646 13.995Z" fill="black"/>
<path d="M70.2856 13.7066V13.1655C70.7305 13.1535 71.019 13.0152 71.1513 12.7507C71.2955 12.4742 71.3677 12.1015 71.3677 11.6326V6.60082C71.3677 6.36035 71.3677 6.14995 71.3677 5.9696C71.3797 5.77723 71.4038 5.57884 71.4398 5.37445C71.2475 5.38647 71.0551 5.39849 70.8627 5.41052C70.6824 5.41052 70.496 5.41653 70.3036 5.42855V4.68912H73.9827V5.23017C73.6221 5.23017 73.3635 5.31433 73.2072 5.48266C73.063 5.65098 72.9788 5.86139 72.9548 6.11388C72.9307 6.35434 72.9187 6.5888 72.9187 6.81724V8.47645L74.0369 8.44038C75.0107 8.41633 75.7742 8.52454 76.3273 8.76501C76.8924 8.99345 77.2891 9.31206 77.5176 9.72085C77.7581 10.1176 77.8783 10.5565 77.8783 11.0374C77.8783 11.6145 77.74 12.1015 77.4635 12.4982C77.199 12.895 76.8443 13.1956 76.3994 13.4C75.9546 13.6044 75.4676 13.7066 74.9386 13.7066H70.2856ZM72.8826 12.9671C73.0149 12.9792 73.1772 12.9852 73.3696 12.9852C73.574 12.9852 73.7603 12.9852 73.9286 12.9852C74.109 12.9852 74.2292 12.9852 74.2893 12.9852C74.8424 12.9852 75.3113 12.8409 75.6961 12.5523C76.0928 12.2638 76.2912 11.7708 76.2912 11.0735C76.2912 10.4603 76.1109 9.98537 75.7502 9.64871C75.4015 9.30004 74.9146 9.1257 74.2893 9.1257C74.0248 9.1257 73.7784 9.13171 73.5499 9.14374C73.3335 9.14374 73.1231 9.14975 72.9187 9.16177V11.9572C72.9187 12.1856 72.9127 12.384 72.9007 12.5523C72.9007 12.7207 72.8946 12.8589 72.8826 12.9671Z" fill="black"/>
<path d="M63.1597 13.7066V13.1655C63.5324 13.1655 63.7909 13.0753 63.9352 12.895C64.0795 12.7026 64.1637 12.4441 64.1877 12.1195C64.2238 11.7828 64.2418 11.3981 64.2418 10.9653V6.60082C64.2418 6.36035 64.2418 6.16197 64.2418 6.00567C64.2538 5.83734 64.2779 5.65098 64.3139 5.44659H63.0335C62.5525 5.44659 62.1978 5.58485 61.9694 5.86139C61.753 6.13792 61.6448 6.65492 61.6448 7.41239H60.9595L61.0316 4.68912H69.003L69.0932 7.41239H68.4079C68.3958 6.65492 68.2816 6.13792 68.0652 5.86139C67.8608 5.58485 67.4761 5.44659 66.911 5.44659H65.7928V11.7949C65.7928 12.0353 65.7868 12.2517 65.7748 12.4441C65.7748 12.6245 65.7567 12.8168 65.7207 13.0212L66.8569 12.9671V13.7066H63.1597Z" fill="black"/>
<path d="M56.1581 13.995C55.3526 13.995 54.6071 13.8147 53.9218 13.454C53.2485 13.0813 52.7075 12.5522 52.2987 11.8669C51.9019 11.1696 51.7035 10.334 51.7035 9.36007C51.7035 8.73486 51.8177 8.12769 52.0462 7.53855C52.2746 6.94941 52.5932 6.42039 53.002 5.95148C53.4228 5.47055 53.9218 5.09182 54.4989 4.81528C55.076 4.53875 55.7133 4.40048 56.4106 4.40048C57.0839 4.40048 57.667 4.50268 58.16 4.70707C58.665 4.91147 59.0557 5.18199 59.3323 5.51864C59.6088 5.85529 59.7471 6.222 59.7471 6.61877C59.7471 6.88328 59.6749 7.11172 59.5307 7.30409C59.3864 7.48444 59.176 7.57462 58.8994 7.57462C58.5989 7.58664 58.3824 7.49647 58.2502 7.30409C58.1299 7.0997 58.0698 6.91935 58.0698 6.76305C58.0698 6.64282 58.0879 6.52258 58.1239 6.40235C58.16 6.27009 58.2321 6.14986 58.3404 6.04165C58.2442 5.75309 58.0758 5.54269 57.8354 5.41043C57.5949 5.26615 57.3424 5.17598 57.0779 5.13991C56.8254 5.09182 56.615 5.06777 56.4467 5.06777C55.6291 5.06777 54.9378 5.39841 54.3727 6.05969C53.8196 6.70894 53.5431 7.65878 53.5431 8.9092C53.5431 9.71476 53.6693 10.4301 53.9218 11.0553C54.1863 11.6806 54.553 12.1735 55.0219 12.5342C55.4908 12.8829 56.0319 13.0572 56.6451 13.0572C57.2102 13.0572 57.7512 12.9069 58.2682 12.6063C58.7852 12.3058 59.188 11.9391 59.4766 11.5062L59.9455 11.8669C59.6329 12.3719 59.2541 12.7807 58.8093 13.0933C58.3764 13.4059 57.9255 13.6343 57.4566 13.7786C56.9998 13.9229 56.5669 13.995 56.1581 13.995Z" fill="black"/>
<path d="M46.6852 13.1655C47.0579 13.1655 47.3164 13.0753 47.4607 12.895C47.605 12.7026 47.6892 12.4441 47.7132 12.1195C47.7373 11.7828 47.7493 11.3981 47.7493 10.9653V6.85331C47.7493 6.66093 47.7553 6.48058 47.7673 6.31226C47.7793 6.13191 47.7974 5.9215 47.8214 5.68104C47.605 5.69306 47.3886 5.70508 47.1722 5.71711C46.9678 5.72913 46.7574 5.74115 46.5409 5.75318V4.99571C47.07 4.99571 47.4788 4.97167 47.7673 4.92357C48.0559 4.87548 48.2723 4.81536 48.4166 4.74322C48.5729 4.67108 48.6931 4.59293 48.7773 4.50877H49.3003V11.7949C49.3003 12.0353 49.2943 12.2517 49.2822 12.4441C49.2822 12.6245 49.2642 12.8168 49.2281 13.0212C49.4205 13.0092 49.6069 13.0032 49.7872 13.0032C49.9796 12.9912 50.172 12.9792 50.3643 12.9671V13.7066H46.6852V13.1655ZM48.4166 2.72332C48.1641 2.72332 47.9417 2.62112 47.7493 2.41672C47.5569 2.21233 47.4607 1.95984 47.4607 1.65926C47.4607 1.35868 47.5569 1.10619 47.7493 0.901794C47.9537 0.685376 48.1821 0.577166 48.4346 0.577166C48.7111 0.577166 48.9396 0.685376 49.1199 0.901794C49.3123 1.10619 49.4085 1.35868 49.4085 1.65926C49.4085 1.95984 49.3063 2.21233 49.1019 2.41672C48.9095 2.62112 48.6811 2.72332 48.4166 2.72332Z" fill="black"/>
<path d="M36.8183 13.7066V13.1655C37.191 13.1655 37.4495 13.0753 37.5938 12.895C37.7381 12.7026 37.8222 12.4441 37.8463 12.1195C37.8823 11.7828 37.9004 11.3981 37.9004 10.9653L37.9184 6.60082C37.9184 6.36035 37.9184 6.14995 37.9184 5.9696C37.9304 5.77723 37.9545 5.57884 37.9905 5.37445C37.7982 5.38647 37.6058 5.39849 37.4134 5.41052C37.2331 5.41052 37.0467 5.41653 36.8543 5.42855V4.68912H40.5335V5.23017C40.1728 5.23017 39.9143 5.32635 39.758 5.51873C39.6137 5.69908 39.5295 5.95758 39.5055 6.29423C39.4814 6.61885 39.4694 6.99759 39.4694 7.43042L39.4514 8.62073H40.1547L42.355 6.31226C42.5594 6.10787 42.7457 5.92752 42.9141 5.77122C43.0824 5.60289 43.2507 5.46462 43.419 5.35641L42.1927 5.41052V4.68912H45.475V5.23017C45.0662 5.26624 44.6815 5.39849 44.3208 5.62694C43.9721 5.84336 43.6475 6.08983 43.3469 6.36637C43.0584 6.6429 42.8059 6.89539 42.5894 7.12383L41.1827 8.60269C41.4232 8.7109 41.6276 8.84917 41.7959 9.01749C41.9642 9.18582 42.1326 9.37218 42.3009 9.57657L43.5814 11.2177C43.6415 11.2899 43.7437 11.4282 43.888 11.6326C44.0443 11.8369 44.2246 12.0594 44.429 12.2998C44.6454 12.5403 44.8678 12.7447 45.0963 12.913C45.3368 13.0814 45.5592 13.1655 45.7636 13.1655V13.7066H44.1224C43.7858 13.7066 43.4671 13.5322 43.1666 13.1836C42.866 12.8349 42.5474 12.4441 42.2107 12.0113C41.8981 11.5784 41.6156 11.1877 41.3631 10.839C41.1226 10.4783 40.9002 10.1657 40.6958 9.9012C40.5034 9.63669 40.3291 9.4323 40.1728 9.28802L39.4514 9.32409L39.4333 11.7949C39.4333 12.0353 39.4273 12.2517 39.4153 12.4441C39.4153 12.6245 39.3973 12.8168 39.3612 13.0212C39.5536 13.0092 39.7399 13.0032 39.9203 13.0032C40.1127 12.9912 40.305 12.9792 40.4974 12.9671V13.7066H36.8183Z" fill="black"/>
<path d="M27.8578 13.7066V13.1655C28.3027 13.1535 28.5913 13.0152 28.7235 12.7507C28.8678 12.4742 28.9399 12.1015 28.9399 11.6326V6.60082C28.9399 6.36035 28.9399 6.14995 28.9399 5.9696C28.952 5.77723 28.976 5.57884 29.0121 5.37445C28.8197 5.38647 28.6273 5.39849 28.435 5.41052C28.2546 5.41052 28.0682 5.41653 27.8759 5.42855V4.68912H31.555V5.23017C31.1943 5.23017 30.9358 5.31433 30.7795 5.48266C30.6352 5.65098 30.551 5.86139 30.527 6.11388C30.5029 6.35434 30.4909 6.5888 30.4909 6.81724V8.47645L31.6091 8.44038C32.583 8.41633 33.3464 8.52454 33.8995 8.76501C34.4646 8.99345 34.8614 9.31206 35.0898 9.72085C35.3303 10.1176 35.4505 10.5565 35.4505 11.0374C35.4505 11.6145 35.3123 12.1015 35.0357 12.4982C34.7712 12.895 34.4165 13.1956 33.9717 13.4C33.5268 13.6044 33.0399 13.7066 32.5108 13.7066H27.8578ZM30.4549 12.9671C30.5871 12.9792 30.7494 12.9852 30.9418 12.9852C31.1462 12.9852 31.3326 12.9852 31.5009 12.9852C31.6812 12.9852 31.8015 12.9852 31.8616 12.9852C32.4146 12.9852 32.8836 12.8409 33.2683 12.5523C33.6651 12.2638 33.8634 11.7708 33.8634 11.0735C33.8634 10.4603 33.6831 9.98537 33.3224 9.64871C32.9737 9.30004 32.4868 9.1257 31.8616 9.1257C31.5971 9.1257 31.3506 9.13171 31.1221 9.14374C30.9057 9.14374 30.6953 9.14975 30.4909 9.16177V11.9572C30.4909 12.1856 30.4849 12.384 30.4729 12.5523C30.4729 12.7207 30.4669 12.8589 30.4549 12.9671Z" fill="black"/>
<path d="M17.8702 13.9049C17.4373 13.9049 17.1007 13.8208 16.8602 13.6525C16.6318 13.4721 16.5175 13.2377 16.5175 12.9491C16.5175 12.6846 16.5837 12.4682 16.7159 12.2998C16.8482 12.1315 17.0466 12.0413 17.3111 12.0293C17.5996 12.0293 17.804 12.1015 17.9243 12.2457C18.0565 12.39 18.1226 12.5343 18.1226 12.6786C18.1226 12.7146 18.1166 12.7627 18.1046 12.8229C18.1046 12.8709 18.0986 12.913 18.0866 12.9491C18.1587 12.9731 18.2128 12.9852 18.2489 12.9852C18.4894 12.9852 18.7418 12.7447 19.0064 12.2638C19.2709 11.7828 19.5113 10.9893 19.7278 9.88317C19.9562 8.76501 20.1125 7.26811 20.1967 5.39248L18.5014 5.46462V4.68912H26.2744V5.23017C25.9137 5.23017 25.6552 5.32635 25.4989 5.51873C25.3546 5.69908 25.2705 5.95758 25.2464 6.29423C25.2224 6.61885 25.2104 6.99759 25.2104 7.43042V11.7949C25.1983 12.0353 25.1863 12.2517 25.1743 12.4441C25.1623 12.6245 25.1382 12.8168 25.1021 13.0212L26.2383 12.9671V13.7066H22.5592V13.1655C22.9319 13.1655 23.1904 13.0753 23.3347 12.895C23.479 12.7026 23.5632 12.4441 23.5872 12.1195C23.6233 11.7828 23.6473 11.3981 23.6594 10.9653V6.60082C23.6594 6.36035 23.6594 6.14995 23.6594 5.9696C23.6714 5.77723 23.6954 5.57884 23.7315 5.37445H22.1444C21.7356 5.37445 21.4531 5.5067 21.2968 5.77122C21.1525 6.0237 21.0804 6.36637 21.0804 6.7992C21.0323 7.65286 20.9421 8.50049 20.8098 9.34212C20.6896 10.1838 20.5093 10.9472 20.2688 11.6326C20.0283 12.3179 19.7097 12.8709 19.3129 13.2918C18.9282 13.7006 18.4473 13.9049 17.8702 13.9049Z" fill="black"/>
<path d="M12.1125 13.1655C12.4852 13.1655 12.7437 13.0753 12.888 12.895C13.0323 12.7026 13.1164 12.4441 13.1405 12.1195C13.1645 11.7828 13.1766 11.3981 13.1766 10.9653V6.85331C13.1766 6.66093 13.1826 6.48058 13.1946 6.31226C13.2066 6.13191 13.2246 5.9215 13.2487 5.68104C13.0323 5.69306 12.8159 5.70508 12.5994 5.71711C12.395 5.72913 12.1846 5.74115 11.9682 5.75318V4.99571C12.4972 4.99571 12.906 4.97167 13.1946 4.92357C13.4831 4.87548 13.6996 4.81536 13.8438 4.74322C14.0001 4.67108 14.1204 4.59293 14.2045 4.50877H14.7276V11.7949C14.7276 12.0353 14.7215 12.2517 14.7095 12.4441C14.7095 12.6245 14.6915 12.8168 14.6554 13.0212C14.8478 13.0092 15.0341 13.0032 15.2145 13.0032C15.4069 12.9912 15.5992 12.9792 15.7916 12.9671V13.7066H12.1125V13.1655ZM13.8438 2.72332C13.5914 2.72332 13.3689 2.62112 13.1766 2.41672C12.9842 2.21233 12.888 1.95984 12.888 1.65926C12.888 1.35868 12.9842 1.10619 13.1766 0.901794C13.3809 0.685376 13.6094 0.577166 13.8619 0.577166C14.1384 0.577166 14.3669 0.685376 14.5472 0.901794C14.7396 1.10619 14.8358 1.35868 14.8358 1.65926C14.8358 1.95984 14.7336 2.21233 14.5292 2.41672C14.3368 2.62112 14.1084 2.72332 13.8438 2.72332Z" fill="black"/>
<path d="M0 13.7065V13.1113C0.456884 13.0873 0.769488 12.9851 0.937814 12.8047C1.10614 12.6123 1.19631 12.3539 1.20834 12.0292C1.23238 11.6926 1.24441 11.3138 1.24441 10.893V3.10196C1.24441 2.86149 1.25042 2.63305 1.26244 2.41663C1.27446 2.18819 1.28649 1.98379 1.29851 1.80344C1.08209 1.81547 0.865674 1.82749 0.649256 1.83951C0.432837 1.85154 0.216419 1.86356 0 1.87558V1.08205H4.05785V1.6772C3.61299 1.68922 3.30038 1.79142 3.12003 1.98379C2.95171 2.17617 2.85552 2.43467 2.83148 2.75929C2.81945 3.08392 2.81344 3.46265 2.81344 3.89549V6.85321H4.16606L6.42042 3.30034C6.57672 3.05987 6.76909 2.79536 6.99753 2.5068C7.22598 2.21825 7.46043 1.97778 7.70089 1.78541C7.52055 1.79743 7.33419 1.80344 7.14181 1.80344C6.96146 1.80344 6.78112 1.80946 6.60077 1.82148V1.08205H10.4783V1.6772C9.97329 1.71327 9.52242 1.79743 9.12565 1.92969C8.72888 2.06194 8.35015 2.2964 7.98945 2.63305C7.62875 2.95768 7.24401 3.45063 6.83522 4.11191L5.0678 6.92535C5.41648 7.12975 5.69902 7.37021 5.91544 7.64675C6.13186 7.91126 6.34828 8.18178 6.5647 8.45832L8.5846 11.1455C9.04149 11.7467 9.41421 12.1915 9.70277 12.4801C10.0033 12.7566 10.2679 12.931 10.4963 13.0031C10.7368 13.0752 10.9832 13.1113 11.2357 13.1113V13.7065H9.03548C8.91524 13.7065 8.75293 13.6223 8.54853 13.454C8.35616 13.2857 8.14575 13.0692 7.91731 12.8047C7.68887 12.5282 7.45442 12.2396 7.21395 11.939L5.04977 9.0174C4.82133 8.71682 4.59288 8.43427 4.36444 8.16976C4.136 7.89322 3.91357 7.68883 3.69715 7.55657L2.81344 7.57461V11.5603C2.81344 11.8849 2.80743 12.1675 2.79541 12.408C2.79541 12.6364 2.78338 12.8288 2.75934 12.9851C2.97576 12.973 3.19217 12.961 3.40859 12.949C3.62501 12.937 3.84143 12.925 4.05785 12.9129V13.7065H0Z" fill="black"/>
</svg>
