<svg width="164" height="55" viewBox="0 0 164 55" fill="none" xmlns="http://www.w3.org/2000/svg">
<path d="M0 3.90477C0 1.74823 1.74822 0 3.90476 0H160.095C162.252 0 164 1.74822 164 3.90476V50.7619C164 52.9185 162.252 54.6667 160.095 54.6667H3.90477C1.74823 54.6667 0 52.9185 0 50.7619V3.90477Z" fill="#E5DEFF"/>
<path d="M130.833 27.2828C130.425 27.2828 130.126 27.3775 129.937 27.567C129.762 27.742 129.652 27.9971 129.609 28.3324C129.565 28.6531 129.543 29.0321 129.543 29.4694L129.521 33.9302C129.521 34.1635 129.514 34.4478 129.499 34.783C129.499 35.1038 129.477 35.4172 129.434 35.7233C129.667 35.6942 129.915 35.6796 130.177 35.6796C130.454 35.665 130.68 35.6577 130.855 35.6577V37.0572H125.541V35.8982C125.964 35.8982 126.263 35.8108 126.438 35.6358C126.613 35.4463 126.722 35.1839 126.766 34.8486C126.81 34.5134 126.832 34.1343 126.832 33.7116V29.2508C126.832 29.0175 126.839 28.7406 126.853 28.4198C126.868 28.0846 126.89 27.7638 126.919 27.4577C126.686 27.4723 126.438 27.4869 126.176 27.5014C125.928 27.516 125.709 27.5233 125.52 27.5233V26.1238H130.833V27.2828ZM134.419 27.6982L135.36 28.5948L128.931 35.439L127.969 34.4769L134.419 27.6982ZM137.984 27.2828C137.575 27.2828 137.277 27.3775 137.087 27.567C136.912 27.742 136.803 27.9971 136.759 28.3324C136.715 28.6531 136.693 29.0321 136.693 29.4694L136.672 33.9302C136.672 34.1635 136.664 34.4478 136.65 34.783C136.65 35.1038 136.635 35.4172 136.606 35.7233C136.839 35.6942 137.087 35.6796 137.349 35.6796C137.612 35.665 137.83 35.6577 138.005 35.6577V37.0572H132.692V35.8982C133.115 35.8982 133.413 35.8108 133.588 35.6358C133.763 35.4463 133.873 35.1839 133.916 34.8486C133.96 34.5134 133.982 34.1343 133.982 33.7116L134.004 29.2508C134.004 29.0175 134.004 28.7406 134.004 28.4198C134.018 28.0846 134.048 27.7638 134.091 27.4577C133.858 27.4723 133.61 27.4869 133.348 27.5014C133.085 27.516 132.859 27.5233 132.67 27.5233V26.1238H137.984V27.2828Z" fill="#705EB2"/>
<path d="M116.343 37.0572V35.8982C116.765 35.8982 117.064 35.8108 117.239 35.6358C117.429 35.4463 117.545 35.1839 117.589 34.8486C117.633 34.5134 117.655 34.1343 117.655 33.7116V29.2508C117.655 29.0175 117.662 28.7551 117.677 28.4636C117.691 28.1574 117.713 27.8586 117.742 27.567H116.846C116.219 27.567 115.752 27.7347 115.446 28.07C115.14 28.3907 114.987 28.9957 114.987 29.8849H113.762L113.85 26.1238H124.149L124.237 29.8849H123.012C123.012 28.9957 122.859 28.3907 122.553 28.07C122.261 27.7347 121.78 27.567 121.11 27.567H120.344V33.9302C120.344 34.1635 120.337 34.4478 120.322 34.783C120.308 35.1038 120.286 35.4172 120.257 35.7233L121.656 35.6577V37.0572H116.343Z" fill="#705EB2"/>
<path d="M105.422 27.2828C105.013 27.2828 104.714 27.3775 104.525 27.567C104.35 27.742 104.241 27.9971 104.197 28.3324C104.153 28.6531 104.131 29.0321 104.131 29.4694L104.11 33.9302C104.11 34.1635 104.102 34.4478 104.088 34.783C104.088 35.1038 104.066 35.4172 104.022 35.7233C104.255 35.6942 104.503 35.6796 104.766 35.6796C105.042 35.665 105.268 35.6577 105.443 35.6577V37.0572H100.13V35.8982C100.553 35.8982 100.851 35.8108 101.026 35.6358C101.201 35.4463 101.311 35.1839 101.354 34.8486C101.398 34.5134 101.42 34.1343 101.42 33.7116V29.2508C101.42 29.0175 101.427 28.7406 101.442 28.4198C101.456 28.0846 101.478 27.7638 101.507 27.4577C101.274 27.4723 101.026 27.4869 100.764 27.5014C100.516 27.516 100.297 27.5233 100.108 27.5233V26.1238H105.422V27.2828ZM109.008 27.6982L109.948 28.5948L103.519 35.439L102.557 34.4769L109.008 27.6982ZM112.572 27.2828C112.164 27.2828 111.865 27.3775 111.675 27.567C111.5 27.742 111.391 27.9971 111.347 28.3324C111.304 28.6531 111.282 29.0321 111.282 29.4694L111.26 33.9302C111.26 34.1635 111.253 34.4478 111.238 34.783C111.238 35.1038 111.223 35.4172 111.194 35.7233C111.428 35.6942 111.675 35.6796 111.938 35.6796C112.2 35.665 112.419 35.6577 112.594 35.6577V37.0572H107.28V35.8982C107.703 35.8982 108.002 35.8108 108.177 35.6358C108.352 35.4463 108.461 35.1839 108.505 34.8486C108.548 34.5134 108.57 34.1343 108.57 33.7116L108.592 29.2508C108.592 29.0175 108.592 28.7406 108.592 28.4198C108.607 28.0846 108.636 27.7638 108.68 27.4577C108.446 27.4723 108.199 27.4869 107.936 27.5014C107.674 27.516 107.448 27.5233 107.258 27.5233V26.1238H112.572V27.2828Z" fill="#705EB2"/>
<path d="M87.9158 37.0571V35.8982C88.3531 35.8836 88.6811 35.7816 88.8998 35.5921C89.1184 35.388 89.2278 34.9871 89.2278 34.3894V28.6822C89.2278 28.4052 89.2278 28.1501 89.2278 27.9169C89.2423 27.669 89.2569 27.4722 89.2715 27.3265C89.082 27.341 88.8487 27.3556 88.5718 27.3702C88.2948 27.3702 88.0761 27.3702 87.9158 27.3702L87.9376 26.1238C88.5499 26.1238 89.1986 26.1238 89.8838 26.1238C90.5835 26.1092 91.2978 26.1019 92.0267 26.1019C92.7556 26.1019 93.4845 26.1019 94.2134 26.1019C95.3942 26.1019 96.298 26.3133 96.9248 26.7361C97.5517 27.1588 97.8651 27.8075 97.8651 28.6822C97.8505 29.2653 97.6756 29.7901 97.3403 30.2566C97.0196 30.7085 96.4875 31.0511 95.744 31.2843C96.7062 31.4155 97.4132 31.729 97.8651 32.2246C98.317 32.7057 98.543 33.2888 98.543 33.9739C98.543 34.6299 98.3608 35.1912 97.9963 35.6577C97.6464 36.1242 97.1654 36.474 96.5531 36.7073C95.9554 36.9405 95.2776 37.0571 94.5195 37.0571H87.9158ZM91.808 35.767C91.9975 35.767 92.2235 35.767 92.4859 35.767C92.7629 35.767 93.018 35.767 93.2512 35.767C93.4991 35.767 93.6813 35.767 93.7979 35.767C94.4685 35.7378 94.9714 35.5702 95.3067 35.2641C95.6566 34.9434 95.8315 34.506 95.8315 33.9521C95.8315 33.2523 95.6056 32.7713 95.1536 32.5089C94.7163 32.2319 94.2207 32.0934 93.6667 32.0934C93.3606 32.0934 93.0472 32.0934 92.7264 32.0934C92.4203 32.0934 92.1433 32.1007 91.8955 32.1153V34.4769C91.8955 34.7538 91.8809 35.0017 91.8518 35.2203C91.8372 35.4244 91.8226 35.6066 91.808 35.767ZM91.8955 30.9345L93.1419 30.9126C93.725 30.898 94.1696 30.796 94.4758 30.6065C94.7965 30.417 95.0152 30.1691 95.1318 29.863C95.2484 29.5569 95.2994 29.2289 95.2848 28.879C95.2848 28.4417 95.1974 28.1137 95.0224 27.895C94.8475 27.6618 94.5997 27.5014 94.279 27.4139C93.9728 27.3119 93.5938 27.2682 93.1419 27.2827C92.792 27.2827 92.4932 27.3556 92.2454 27.5014C92.0121 27.6326 91.8955 27.9679 91.8955 28.5073V30.9345Z" fill="#705EB2"/>
<path d="M80.7595 37.407C79.7244 37.407 78.7842 37.181 77.9387 36.7291C77.0931 36.2626 76.4226 35.6139 75.9269 34.783C75.4459 33.9375 75.2053 32.9535 75.2053 31.831C75.2053 30.6502 75.4531 29.6006 75.9488 28.6822C76.4444 27.7638 77.1077 27.0495 77.9387 26.5393C78.7842 26.029 79.7099 25.7739 80.7157 25.7739C81.7507 25.7739 82.6837 26.0072 83.5147 26.4737C84.3456 26.9401 85.0016 27.5889 85.4827 28.4198C85.9783 29.2507 86.2261 30.2347 86.2261 31.3718C86.2261 32.5672 85.9856 33.6241 85.5045 34.5425C85.038 35.4463 84.3893 36.1533 83.5584 36.6635C82.742 37.1592 81.8091 37.407 80.7595 37.407ZM80.8688 36.0731C81.5248 36.0731 82.0277 35.869 82.3776 35.4609C82.7275 35.0527 82.968 34.5352 83.0992 33.9083C83.245 33.2669 83.3179 32.6109 83.3179 31.9403C83.3179 31.3718 83.2668 30.796 83.1648 30.2129C83.0773 29.6297 82.9315 29.1049 82.7275 28.6385C82.5234 28.1574 82.2537 27.7784 81.9184 27.5014C81.5831 27.2098 81.1749 27.0641 80.6939 27.0641C80.0524 27.0786 79.5422 27.29 79.1632 27.6982C78.7842 28.1064 78.5072 28.6239 78.3323 29.2507C78.1719 29.8776 78.0917 30.5409 78.0917 31.2406C78.0917 32.0278 78.1865 32.8004 78.376 33.5585C78.5655 34.3019 78.8643 34.9142 79.2725 35.3953C79.6807 35.8618 80.2128 36.0877 80.8688 36.0731Z" fill="#705EB2"/>
<path d="M66.4944 27.2828C66.0716 27.2828 65.7655 27.3775 65.576 27.567C65.4011 27.742 65.2917 27.9971 65.248 28.3324C65.2043 28.6531 65.1824 29.0321 65.1824 29.4694L65.1605 33.9302C65.1605 34.1635 65.1532 34.4478 65.1387 34.783C65.1387 35.1038 65.1168 35.4172 65.0731 35.7233L66.4944 35.6577V37.0572H61.1589V35.8982C61.5817 35.8982 61.8805 35.8108 62.0555 35.6358C62.245 35.4463 62.3616 35.1839 62.4053 34.8486C62.4491 34.5134 62.4709 34.1343 62.4709 33.7116V29.2508C62.4709 29.0175 62.4782 28.7406 62.4928 28.4198C62.5074 28.0846 62.5292 27.7638 62.5584 27.4577L61.1589 27.5233V26.1238H66.4944V27.2828ZM73.5136 27.2828C73.0909 27.2828 72.7847 27.3775 72.5952 27.567C72.4203 27.742 72.3109 27.9971 72.2672 28.3324C72.2381 28.6531 72.2162 29.0321 72.2016 29.4694V33.9302C72.2016 34.1635 72.1943 34.4478 72.1797 34.783C72.1797 35.1038 72.1652 35.4172 72.136 35.7233L73.5355 35.6577V37.0572H68.2V35.8982C68.6228 35.8982 68.9216 35.8108 69.0965 35.6358C69.286 35.4463 69.4027 35.1839 69.4464 34.8486C69.4901 34.5134 69.512 34.1343 69.512 33.7116V29.2508C69.512 29.0175 69.5193 28.7406 69.5339 28.4198C69.5484 28.0846 69.5703 27.7638 69.5995 27.4577L68.2 27.5233V26.1238H73.5136V27.2828ZM63.9797 30.7596H70.168V32.159L63.9797 32.2246V30.7596Z" fill="#705EB2"/>
<path d="M46.6702 41.015V35.6358H47.7198C48.0551 35.6358 48.3466 35.5411 48.5944 35.3516C48.8423 35.1475 49.0682 34.8268 49.2723 34.3894C49.4327 34.025 49.5784 33.5804 49.7096 33.0556C49.8408 32.5162 49.9575 31.9331 50.0595 31.3062C50.1615 30.6648 50.2417 30.0088 50.3 29.3382C50.3729 28.6677 50.4239 28.019 50.4531 27.3921L48.4414 27.5452V26.1238H58.8936V27.2828C58.4709 27.2828 58.1647 27.3775 57.9752 27.567C57.8003 27.742 57.691 27.9971 57.6472 28.3324C57.6035 28.6531 57.5816 29.0321 57.5816 29.4694V33.9302C57.5816 34.1635 57.5743 34.4405 57.5598 34.7612C57.5452 35.0819 57.516 35.3953 57.4723 35.7014L59.659 35.614V41.015H58.4126C58.4417 39.8488 58.3251 38.894 58.0627 38.1505C57.8149 37.4216 57.3775 37.0572 56.7507 37.0572H49.5784C48.9516 37.0572 48.507 37.4216 48.2446 38.1505C47.9967 38.894 47.8801 39.8488 47.8947 41.015H46.6702ZM50.0376 35.6358H53.58C54.0028 35.6358 54.3016 35.5484 54.4766 35.3734C54.6515 35.1839 54.7608 34.9288 54.8046 34.6081C54.8629 34.2728 54.892 33.8865 54.892 33.4492V29.2289C54.892 28.9957 54.892 28.726 54.892 28.4198C54.9066 28.1137 54.9285 27.8222 54.9576 27.5452H53.0552C52.6762 27.5452 52.3919 27.6326 52.2024 27.8076C52.0275 27.9679 51.9109 28.2449 51.8526 28.6385C51.7505 29.5569 51.6485 30.366 51.5464 31.0657C51.4444 31.7654 51.3351 32.385 51.2184 32.9244C51.1018 33.4492 50.9633 33.9011 50.803 34.2801C50.7009 34.5279 50.5843 34.7612 50.4531 34.9798C50.3365 35.1985 50.198 35.4172 50.0376 35.6358Z" fill="#705EB2"/>
<path d="M40.2954 35.8982C40.7182 35.8982 41.017 35.8108 41.1919 35.6358C41.3669 35.4463 41.4762 35.1839 41.5199 34.8486C41.5637 34.5133 41.5855 34.1343 41.5855 33.7115V29.6225C41.5855 29.3747 41.5928 29.105 41.6074 28.8134C41.622 28.5073 41.6438 28.1939 41.673 27.8731C41.4252 27.8877 41.1555 27.9023 40.8639 27.9169C40.5724 27.9315 40.3318 27.946 40.1423 27.9606V26.5393C40.7983 26.5393 41.3377 26.5101 41.7605 26.4518C42.1978 26.3789 42.5331 26.2915 42.7663 26.1894C43.0142 26.0874 43.1891 25.9926 43.2911 25.9051H44.2751V33.9302C44.2751 34.1635 44.2678 34.4477 44.2533 34.783C44.2533 35.1037 44.2314 35.4172 44.1877 35.7233C44.4209 35.6941 44.6687 35.6796 44.9311 35.6796C45.2081 35.665 45.4341 35.6577 45.609 35.6577V37.0572H40.2954V35.8982ZM42.8101 24.0246C42.3873 24.0246 42.0302 23.8715 41.7386 23.5654C41.447 23.2447 41.3013 22.8584 41.3013 22.4065C41.3013 21.9546 41.447 21.5683 41.7386 21.2475C42.0447 20.9268 42.4019 20.7665 42.8101 20.7665C43.2328 20.7665 43.5827 20.9268 43.8597 21.2475C44.1512 21.5683 44.297 21.9546 44.297 22.4065C44.297 22.8584 44.1585 23.2447 43.8815 23.5654C43.6046 23.8715 43.2474 24.0246 42.8101 24.0246Z" fill="#705EB2"/>
<path d="M26.335 37.0571V35.8545C26.7431 35.8399 27.0566 35.767 27.2752 35.6358C27.4939 35.5046 27.647 35.2859 27.7344 34.9798C27.8219 34.6591 27.8656 34.2145 27.8656 33.6459V25.0086C27.8656 24.615 27.8729 24.2505 27.8875 23.9153C27.9166 23.58 27.9385 23.3176 27.9531 23.1281C27.7053 23.1426 27.421 23.1572 27.1003 23.1718C26.7796 23.1718 26.5245 23.1791 26.335 23.1937V21.7505C27.2679 21.7359 28.2082 21.7286 29.1558 21.7286C30.1033 21.7286 31.0582 21.7213 32.0203 21.7067C33.7405 21.6921 35.1035 22.0056 36.1094 22.647C37.1152 23.2884 37.589 24.2724 37.5307 25.599C37.5161 26.0363 37.3849 26.4664 37.1371 26.8891C36.8893 27.3119 36.5248 27.6909 36.0438 28.0262C35.5627 28.3615 34.9577 28.6166 34.2288 28.7915V28.8134C35.7303 28.9737 36.8455 29.4257 37.5744 30.1691C38.3033 30.898 38.6678 31.7508 38.6678 32.7275C38.6678 33.6605 38.4418 34.4477 37.9899 35.0891C37.538 35.7306 36.9111 36.2189 36.1094 36.5542C35.3222 36.8895 34.4256 37.0571 33.4198 37.0571H26.335ZM30.5334 35.7233C30.7812 35.7378 31.0363 35.7451 31.2987 35.7451C31.5757 35.7451 31.8381 35.7451 32.0859 35.7451C32.3337 35.7306 32.5451 35.7233 32.72 35.7233C33.6822 35.6941 34.4111 35.4171 34.9067 34.8923C35.4169 34.353 35.672 33.6314 35.672 32.7275C35.672 31.9841 35.519 31.4009 35.2128 30.9782C34.9213 30.5554 34.535 30.2566 34.0539 30.0817C33.5874 29.9067 33.0845 29.8193 32.5451 29.8193C32.1515 29.8193 31.8089 29.8193 31.5174 29.8193C31.2258 29.8193 30.927 29.8338 30.6208 29.863V33.8865C30.6208 34.2801 30.6135 34.6372 30.599 34.9579C30.5844 35.2786 30.5625 35.5337 30.5334 35.7233ZM30.6208 28.5291L31.911 28.5073C32.5961 28.4927 33.1355 28.3469 33.5291 28.0699C33.9227 27.7784 34.207 27.4066 34.3819 26.9547C34.5568 26.4882 34.6443 25.9853 34.6443 25.4459C34.6297 24.8045 34.4839 24.3089 34.207 23.959C33.9446 23.5945 33.6166 23.3394 33.223 23.1937C32.8294 23.0479 32.4212 22.9823 31.9984 22.9969C31.6923 22.9969 31.4372 23.0406 31.2331 23.1281C31.029 23.2155 30.8759 23.3977 30.7739 23.6747C30.6719 23.9517 30.6208 24.3672 30.6208 24.9211V28.5291Z" fill="#705EB2"/>
</svg>
