<svg width="223" height="22" viewBox="0 0 223 22" fill="none" xmlns="http://www.w3.org/2000/svg">
<path d="M216.052 5.85358C215.63 5.85358 215.336 5.95184 215.167 6.14836C214.999 6.34489 214.893 6.61861 214.851 6.96954C214.823 7.32047 214.802 7.72755 214.788 8.19078V12.8862C214.788 13.1389 214.781 13.3986 214.767 13.6653C214.753 13.918 214.732 14.1777 214.704 14.4444C214.929 14.4303 215.153 14.4233 215.378 14.4233C215.616 14.4093 215.834 14.3952 216.03 14.3812V15.4972H211.335V14.6128C211.756 14.6128 212.051 14.5146 212.219 14.318C212.388 14.1215 212.493 13.8478 212.535 13.4969C212.577 13.1459 212.598 12.7388 212.598 12.2756V7.58016C212.598 7.32749 212.598 7.0678 212.598 6.8011C212.612 6.53439 212.64 6.2747 212.683 6.02203C212.458 6.03607 212.226 6.0501 211.988 6.06414C211.749 6.06414 211.532 6.07116 211.335 6.0852V4.96924H216.052V5.85358ZM219.842 6.23259L220.621 6.92743L214.304 14.2549L213.483 13.5179L219.842 6.23259ZM223 5.85358C222.593 5.85358 222.298 5.95184 222.116 6.14836C221.947 6.34489 221.842 6.61861 221.8 6.96954C221.772 7.32047 221.758 7.72755 221.758 8.19078L221.737 12.8862C221.737 13.1389 221.73 13.3986 221.716 13.6653C221.702 13.918 221.68 14.1777 221.652 14.4444C221.877 14.4303 222.109 14.4233 222.347 14.4233C222.586 14.4093 222.803 14.3952 223 14.3812V15.4972H218.283V14.6128C218.705 14.6128 218.999 14.5146 219.168 14.318C219.336 14.1215 219.442 13.8478 219.484 13.4969C219.526 13.1459 219.547 12.7388 219.547 12.2756V7.58016C219.547 7.32749 219.554 7.0678 219.568 6.8011C219.582 6.53439 219.603 6.2747 219.631 6.02203C219.406 6.03607 219.175 6.0501 218.936 6.06414C218.712 6.06414 218.501 6.07116 218.305 6.0852V4.96924H223V5.85358Z" fill="black"/>
<path d="M199.382 15.4972V14.6128C199.804 14.6128 200.098 14.5146 200.267 14.318C200.435 14.1215 200.54 13.8478 200.583 13.4969C200.625 13.1459 200.646 12.7388 200.646 12.2756L200.667 7.58016C200.667 7.32749 200.667 7.0678 200.667 6.8011C200.681 6.53439 200.709 6.2747 200.751 6.02203C200.526 6.03607 200.295 6.0501 200.056 6.06414C199.818 6.06414 199.6 6.07116 199.403 6.0852V4.96924H204.099V5.85358C203.692 5.85358 203.397 5.95184 203.215 6.14836C203.046 6.34489 202.941 6.61861 202.899 6.96954C202.871 7.32047 202.857 7.72755 202.857 8.19078V9.43308H203.741L205.952 7.05377C206.176 6.82917 206.373 6.63265 206.541 6.4642C206.71 6.29575 206.878 6.14836 207.047 6.02203L205.72 6.06414V4.96924H209.868V5.83253C209.377 5.88867 208.928 6.03607 208.521 6.2747C208.128 6.49929 207.77 6.75898 207.447 7.05377C207.124 7.34855 206.85 7.62227 206.626 7.87494L205.067 9.5173C205.334 9.64364 205.566 9.80506 205.762 10.0016C205.959 10.1841 206.169 10.4227 206.394 10.7175L207.868 12.6125C207.938 12.6967 208.05 12.8511 208.205 13.0757C208.373 13.2863 208.57 13.5109 208.794 13.7495C209.019 13.9882 209.251 14.1917 209.489 14.3601C209.742 14.5286 209.981 14.6128 210.205 14.6128V15.4972H208.121C207.714 15.4972 207.335 15.3077 206.984 14.9287C206.647 14.5497 206.275 14.0934 205.868 13.56C205.531 13.1108 205.222 12.6897 204.941 12.2967C204.66 11.8896 204.401 11.5246 204.162 11.2018C203.937 10.8789 203.741 10.6262 203.573 10.4438L202.857 10.4859L202.836 12.8862C202.836 13.1389 202.829 13.3986 202.815 13.6653C202.815 13.918 202.793 14.1777 202.751 14.4444C202.976 14.4303 203.201 14.4233 203.425 14.4233C203.664 14.4093 203.888 14.3952 204.099 14.3812V15.4972H199.382Z" fill="black"/>
<path d="M186.861 20.8663V19.982C187.283 19.982 187.577 19.8837 187.746 19.6872C187.914 19.4907 188.012 19.217 188.041 18.866C188.083 18.5151 188.104 18.108 188.104 17.6448L188.125 7.89594C188.125 7.67135 188.132 7.43271 188.146 7.18004C188.16 6.91333 188.181 6.65364 188.209 6.40097C187.97 6.41501 187.718 6.42905 187.451 6.44309C187.184 6.44309 186.939 6.45011 186.714 6.46414V5.34818C187.346 5.34818 187.837 5.32011 188.188 5.26396C188.553 5.19377 188.827 5.11657 189.009 5.03234C189.206 4.94812 189.353 4.85688 189.451 4.75862H190.209C190.223 4.89899 190.237 5.06744 190.251 5.26396C190.265 5.46048 190.279 5.657 190.294 5.85352C190.743 5.46048 191.241 5.15868 191.789 4.94812C192.336 4.73756 192.883 4.63228 193.431 4.63228C194.245 4.63228 194.989 4.84986 195.663 5.28501C196.351 5.70613 196.898 6.30973 197.305 7.09582C197.726 7.8819 197.937 8.81538 197.937 9.89625C197.937 11.0613 197.698 12.0931 197.221 12.9915C196.744 13.8898 196.098 14.5917 195.284 15.097C194.484 15.5883 193.592 15.834 192.61 15.834C192.16 15.834 191.746 15.7778 191.367 15.6656C190.988 15.5673 190.63 15.4269 190.294 15.2444V18.2554C190.294 18.5081 190.287 18.7608 190.272 19.0134C190.272 19.2801 190.258 19.5468 190.23 19.8136C190.455 19.7995 190.68 19.7855 190.904 19.7714C191.143 19.7714 191.36 19.7644 191.557 19.7504V20.8663H186.861ZM192.462 14.7391C193.136 14.7391 193.691 14.5426 194.126 14.1495C194.575 13.7425 194.905 13.202 195.115 12.5282C195.34 11.8404 195.452 11.0684 195.452 10.2121C195.452 9.49619 195.354 8.81538 195.157 8.16967C194.961 7.50992 194.645 6.9765 194.21 6.56942C193.789 6.1483 193.234 5.94476 192.547 5.9588C192.111 5.9588 191.697 6.06408 191.304 6.27464C190.911 6.4852 190.581 6.74489 190.315 7.05371C190.315 7.23619 190.315 7.43271 190.315 7.64327C190.329 7.85383 190.336 8.12054 190.336 8.44339C190.336 8.75221 190.336 9.15227 190.336 9.64358C190.336 10.1208 190.329 10.7244 190.315 11.4544C190.315 12.1703 190.315 13.0406 190.315 14.0653C190.595 14.2759 190.918 14.4443 191.283 14.5706C191.662 14.697 192.055 14.7531 192.462 14.7391Z" fill="black"/>
<path d="M180.821 14.6128C181.242 14.6128 181.536 14.5145 181.705 14.318C181.873 14.1215 181.972 13.8477 182 13.4968C182.042 13.1459 182.063 12.7388 182.063 12.2756V7.917C182.063 7.67837 182.07 7.43974 182.084 7.2011C182.098 6.94843 182.119 6.68173 182.147 6.40098C181.908 6.41502 181.656 6.42906 181.389 6.44309C181.122 6.44309 180.877 6.45011 180.652 6.46415V5.34819C181.284 5.34819 181.782 5.32011 182.147 5.26396C182.526 5.19378 182.814 5.11657 183.01 5.03235C183.221 4.94813 183.375 4.85688 183.474 4.75862H184.274V12.8862C184.274 13.1389 184.267 13.3985 184.253 13.6653C184.239 13.9179 184.218 14.1776 184.189 14.4443C184.414 14.4303 184.639 14.4233 184.863 14.4233C185.102 14.4092 185.319 14.3952 185.516 14.3811V15.4971H180.821V14.6128ZM183.052 2.82148C182.687 2.82148 182.379 2.68813 182.126 2.42142C181.873 2.14068 181.747 1.80379 181.747 1.41074C181.747 1.0177 181.88 0.687826 182.147 0.421118C182.414 0.140373 182.716 0 183.052 0C183.417 0 183.719 0.140373 183.958 0.421118C184.211 0.687826 184.337 1.0177 184.337 1.41074C184.337 1.80379 184.211 2.14068 183.958 2.42142C183.719 2.68813 183.417 2.82148 183.052 2.82148Z" fill="black"/>
<path d="M169.449 15.4972V14.6128C169.927 14.5988 170.257 14.4725 170.439 14.2338C170.622 13.9811 170.713 13.567 170.713 12.9915V7.20116C170.713 6.94849 170.72 6.71688 170.734 6.50632C170.748 6.29576 170.769 6.10626 170.797 5.93781C170.587 5.95185 170.355 5.96588 170.102 5.97992C169.864 5.97992 169.653 5.98694 169.471 6.00098V4.96924C169.962 4.96924 170.516 4.96924 171.134 4.96924C171.766 4.9552 172.432 4.94818 173.134 4.94818C173.85 4.94818 174.559 4.94818 175.261 4.94818C176.314 4.94818 177.149 5.15172 177.767 5.5588C178.384 5.96588 178.686 6.5765 178.672 7.39066C178.672 7.95215 178.497 8.46451 178.146 8.92774C177.809 9.39097 177.254 9.72786 176.482 9.93842C177.423 10.0367 178.125 10.3174 178.588 10.7807C179.051 11.2439 179.283 11.8194 179.283 12.5072C179.283 13.153 179.114 13.7004 178.777 14.1496C178.44 14.5847 177.984 14.9216 177.409 15.1603C176.847 15.3849 176.229 15.4972 175.556 15.4972H169.449ZM172.839 14.4444C173.022 14.4584 173.24 14.4654 173.492 14.4654C173.745 14.4654 173.984 14.4654 174.208 14.4654C174.447 14.4514 174.608 14.4444 174.692 14.4444C175.408 14.4444 175.963 14.29 176.356 13.9811C176.763 13.6583 176.966 13.174 176.966 12.5283C176.966 11.8264 176.728 11.3351 176.251 11.0544C175.787 10.7596 175.254 10.6122 174.65 10.6122C174.341 10.6122 174.033 10.6192 173.724 10.6333C173.415 10.6333 173.148 10.6403 172.924 10.6543V13.2442C172.924 13.4969 172.917 13.7285 172.903 13.939C172.889 14.1356 172.868 14.304 172.839 14.4444ZM172.924 9.68575L174.292 9.6647C174.868 9.63662 175.31 9.52432 175.619 9.3278C175.942 9.11724 176.166 8.85756 176.293 8.54874C176.419 8.22588 176.482 7.88899 176.482 7.53805C176.482 7.08886 176.384 6.74495 176.187 6.50632C176.005 6.26769 175.752 6.10626 175.429 6.02203C175.107 5.93781 174.749 5.8957 174.356 5.8957C173.92 5.8957 173.569 5.9729 173.303 6.12731C173.05 6.28172 172.924 6.63967 172.924 7.20116V9.68575Z" fill="black"/>
<path d="M163.111 15.834C162.129 15.834 161.244 15.6094 160.458 15.1602C159.686 14.697 159.076 14.0513 158.626 13.2231C158.177 12.3808 157.953 11.3912 157.953 10.2542C157.953 9.27159 158.17 8.35215 158.605 7.49588C159.055 6.63961 159.679 5.95178 160.479 5.43241C161.28 4.89899 162.206 4.63228 163.259 4.63228C163.848 4.63228 164.403 4.72352 164.922 4.90601C165.456 5.08849 165.926 5.37626 166.333 5.7693C166.754 6.1483 167.084 6.64663 167.323 7.26427C167.561 7.86787 167.68 8.60482 167.68 9.47513L160.437 9.60147C160.437 10.556 160.543 11.4052 160.753 12.1492C160.978 12.8932 161.336 13.4687 161.827 13.8758C162.318 14.2829 162.957 14.4864 163.743 14.4864C164.122 14.4864 164.522 14.4233 164.943 14.2969C165.378 14.1565 165.785 13.96 166.164 13.7074C166.558 13.4547 166.887 13.1529 167.154 12.802L167.807 13.3705C167.386 14.0021 166.901 14.5005 166.354 14.8654C165.807 15.2164 165.245 15.462 164.67 15.6024C164.108 15.7568 163.589 15.834 163.111 15.834ZM160.522 8.50656H165.385C165.385 7.97315 165.308 7.49588 165.154 7.07476C165.013 6.63961 164.789 6.2957 164.48 6.04303C164.171 5.79036 163.778 5.66402 163.301 5.66402C162.557 5.66402 161.946 5.90265 161.469 6.37992C160.992 6.84315 160.676 7.55203 160.522 8.50656Z" fill="black"/>
<path d="M145.284 20.8663V19.982C145.705 19.982 146 19.8837 146.169 19.6872C146.337 19.4907 146.435 19.217 146.463 18.866C146.506 18.5151 146.527 18.108 146.527 17.6448L146.548 7.89594C146.548 7.67135 146.555 7.43271 146.569 7.18004C146.583 6.91333 146.604 6.65364 146.632 6.40097C146.393 6.41501 146.141 6.42905 145.874 6.44309C145.607 6.44309 145.362 6.45011 145.137 6.46414V5.34818C145.769 5.34818 146.26 5.32011 146.611 5.26396C146.976 5.19377 147.25 5.11657 147.432 5.03234C147.629 4.94812 147.776 4.85688 147.874 4.75862H148.632C148.646 4.89899 148.66 5.06744 148.674 5.26396C148.688 5.46048 148.702 5.657 148.716 5.85352C149.166 5.46048 149.664 5.15868 150.211 4.94812C150.759 4.73756 151.306 4.63228 151.854 4.63228C152.668 4.63228 153.412 4.84986 154.086 5.28501C154.774 5.70613 155.321 6.30973 155.728 7.09582C156.149 7.8819 156.36 8.81538 156.36 9.89625C156.36 11.0613 156.121 12.0931 155.644 12.9915C155.167 13.8898 154.521 14.5917 153.707 15.097C152.907 15.5883 152.015 15.834 151.033 15.834C150.583 15.834 150.169 15.7778 149.79 15.6656C149.411 15.5673 149.053 15.4269 148.716 15.2444V18.2554C148.716 18.5081 148.709 18.7608 148.695 19.0134C148.695 19.2801 148.681 19.5468 148.653 19.8136C148.878 19.7995 149.102 19.7855 149.327 19.7714C149.566 19.7714 149.783 19.7644 149.98 19.7504V20.8663H145.284ZM150.885 14.7391C151.559 14.7391 152.113 14.5426 152.549 14.1495C152.998 13.7425 153.328 13.202 153.538 12.5282C153.763 11.8404 153.875 11.0684 153.875 10.2121C153.875 9.49619 153.777 8.81538 153.58 8.16967C153.384 7.50992 153.068 6.9765 152.633 6.56942C152.212 6.1483 151.657 5.94476 150.969 5.9588C150.534 5.9588 150.12 6.06408 149.727 6.27464C149.334 6.4852 149.004 6.74489 148.738 7.05371C148.738 7.23619 148.738 7.43271 148.738 7.64327C148.752 7.85383 148.759 8.12054 148.759 8.44339C148.759 8.75221 148.759 9.15227 148.759 9.64358C148.759 10.1208 148.752 10.7244 148.738 11.4544C148.738 12.1703 148.738 13.0406 148.738 14.0653C149.018 14.2759 149.341 14.4443 149.706 14.5706C150.085 14.697 150.478 14.7531 150.885 14.7391Z" fill="black"/>
<path d="M139.136 15.834C138.153 15.834 137.269 15.6094 136.483 15.1602C135.711 14.697 135.1 14.0513 134.651 13.2231C134.202 12.3808 133.977 11.3912 133.977 10.2542C133.977 9.27159 134.195 8.35215 134.63 7.49588C135.079 6.63961 135.704 5.95178 136.504 5.43241C137.304 4.89899 138.23 4.63228 139.283 4.63228C139.873 4.63228 140.427 4.72352 140.946 4.90601C141.48 5.08849 141.95 5.37626 142.357 5.7693C142.778 6.1483 143.108 6.64663 143.347 7.26427C143.585 7.86787 143.705 8.60482 143.705 9.47513L136.462 9.60147C136.462 10.556 136.567 11.4052 136.777 12.1492C137.002 12.8932 137.36 13.4687 137.851 13.8758C138.343 14.2829 138.981 14.4864 139.767 14.4864C140.146 14.4864 140.546 14.4233 140.968 14.2969C141.403 14.1565 141.81 13.96 142.189 13.7074C142.582 13.4547 142.912 13.1529 143.178 12.802L143.831 13.3705C143.41 14.0021 142.926 14.5005 142.378 14.8654C141.831 15.2164 141.269 15.462 140.694 15.6024C140.132 15.7568 139.613 15.834 139.136 15.834ZM136.546 8.50656H141.41C141.41 7.97315 141.332 7.49588 141.178 7.07476C141.038 6.63961 140.813 6.2957 140.504 6.04303C140.195 5.79036 139.802 5.66402 139.325 5.66402C138.581 5.66402 137.971 5.90265 137.493 6.37992C137.016 6.84315 136.7 7.55203 136.546 8.50656Z" fill="black"/>
<path d="M120.841 15.4972V14.6128C121.262 14.6128 121.556 14.5146 121.725 14.318C121.893 14.1215 121.999 13.8478 122.041 13.4969C122.083 13.1459 122.104 12.7388 122.104 12.2756V7.58016C122.104 7.32749 122.104 7.0678 122.104 6.8011C122.118 6.53439 122.139 6.2747 122.167 6.02203L120.841 6.0852V4.96924H132.274V5.85358C131.867 5.85358 131.572 5.95184 131.39 6.14836C131.221 6.34489 131.116 6.61861 131.074 6.96954C131.046 7.32047 131.032 7.72755 131.032 8.19078L130.989 12.8862C130.989 13.1389 130.982 13.3986 130.968 13.6653C130.968 13.918 130.947 14.1777 130.905 14.4444L132.253 14.3812V15.4972H127.536V14.6128C127.957 14.6128 128.252 14.5146 128.421 14.318C128.589 14.1215 128.694 13.8478 128.737 13.4969C128.779 13.1459 128.8 12.7388 128.8 12.2756V7.58016C128.8 7.32749 128.807 7.07482 128.821 6.82215C128.835 6.56948 128.856 6.30979 128.884 6.04308L125.578 6.0852C125.157 6.0852 124.862 6.16942 124.694 6.33787C124.525 6.49228 124.42 6.73091 124.378 7.05377C124.35 7.36259 124.329 7.73457 124.315 8.16973L124.294 12.8862C124.294 13.1389 124.287 13.3986 124.273 13.6653C124.273 13.918 124.252 14.1777 124.21 14.4444L125.557 14.3812V15.4972H120.841Z" fill="black"/>
<path d="M106.598 5.85358C106.177 5.85358 105.882 5.95184 105.714 6.14836C105.545 6.34489 105.44 6.61861 105.398 6.96954C105.37 7.32047 105.349 7.72755 105.335 8.19078V12.8862C105.335 13.1389 105.328 13.3986 105.314 13.6653C105.3 13.918 105.279 14.1777 105.251 14.4444C105.475 14.4303 105.7 14.4233 105.924 14.4233C106.163 14.4093 106.381 14.3952 106.577 14.3812V15.4972H101.882V14.6128C102.303 14.6128 102.597 14.5146 102.766 14.318C102.934 14.1215 103.04 13.8478 103.082 13.4969C103.124 13.1459 103.145 12.7388 103.145 12.2756V7.58016C103.145 7.32749 103.145 7.0678 103.145 6.8011C103.159 6.53439 103.187 6.2747 103.229 6.02203C103.005 6.03607 102.773 6.0501 102.534 6.06414C102.296 6.06414 102.078 6.07116 101.882 6.0852V4.96924H106.598V5.85358ZM110.388 6.23259L111.167 6.92743L104.85 14.2549L104.029 13.5179L110.388 6.23259ZM113.547 5.85358C113.139 5.85358 112.845 5.95184 112.662 6.14836C112.494 6.34489 112.388 6.61861 112.346 6.96954C112.318 7.32047 112.304 7.72755 112.304 8.19078L112.283 12.8862C112.283 13.1389 112.276 13.3986 112.262 13.6653C112.248 13.918 112.227 14.1777 112.199 14.4444C112.424 14.4303 112.655 14.4233 112.894 14.4233C113.132 14.4093 113.35 14.3952 113.547 14.3812V15.4972H108.83V14.6128C109.251 14.6128 109.546 14.5146 109.714 14.318C109.883 14.1215 109.988 13.8478 110.03 13.4969C110.072 13.1459 110.093 12.7388 110.093 12.2756V7.58016C110.093 7.32749 110.1 7.0678 110.114 6.8011C110.128 6.53439 110.15 6.2747 110.178 6.02203C109.953 6.03607 109.721 6.0501 109.483 6.06414C109.258 6.06414 109.048 6.07116 108.851 6.0852V4.96924H113.547V5.85358Z" fill="black"/>
<path d="M93.3137 15.4972V14.6128C93.7348 14.6128 94.0296 14.5146 94.198 14.318C94.3665 14.1215 94.4718 13.8478 94.5139 13.4969C94.556 13.1459 94.577 12.7388 94.577 12.2756V7.58016C94.577 7.32749 94.577 7.08886 94.577 6.86426C94.5911 6.62563 94.6121 6.37296 94.6402 6.10625H93.4821C92.8926 6.10625 92.4574 6.26768 92.1767 6.59054C91.91 6.91339 91.7766 7.50296 91.7766 8.35923H90.787L90.8712 4.96924H100.473L100.578 8.35923H99.5883C99.5743 7.50296 99.4339 6.91339 99.1672 6.59054C98.9005 6.26768 98.4443 6.10625 97.7986 6.10625H96.7668V12.8862C96.7668 13.1389 96.7598 13.3986 96.7458 13.6653C96.7458 13.918 96.7247 14.1777 96.6826 14.4444L98.0302 14.3812V15.4972H93.3137Z" fill="black"/>
<path d="M86.5643 15.4971C86.5362 15.2725 86.5152 15.076 86.5012 14.9075C86.4871 14.7391 86.4661 14.5636 86.438 14.3811C85.9607 14.8584 85.4484 15.2234 84.9009 15.476C84.3535 15.7147 83.7849 15.834 83.1954 15.834C82.1847 15.834 81.4197 15.5883 80.9003 15.097C80.3949 14.5917 80.1423 13.967 80.1423 13.2231C80.1423 12.5774 80.3318 12.0159 80.7108 11.5386C81.0898 11.0613 81.5881 10.6753 82.2058 10.3805C82.8234 10.0717 83.4972 9.84712 84.2271 9.70674C84.9571 9.55233 85.673 9.47513 86.3748 9.47513V8.23283C86.3748 7.78364 86.3327 7.36954 86.2485 6.99054C86.1643 6.5975 85.9888 6.28166 85.7221 6.04303C85.4694 5.79036 85.0693 5.66402 84.5219 5.66402C84.1569 5.64998 83.792 5.72017 83.427 5.87458C83.062 6.01495 82.7813 6.25358 82.5848 6.59048C82.6971 6.70278 82.7672 6.83613 82.7953 6.99054C82.8374 7.13091 82.8585 7.26427 82.8585 7.3906C82.8585 7.58712 82.7743 7.81172 82.6058 8.06439C82.4374 8.30302 82.1496 8.41532 81.7425 8.40128C81.4056 8.40128 81.1459 8.28898 80.9635 8.06439C80.795 7.82575 80.7108 7.55203 80.7108 7.24321C80.7108 6.73787 80.8933 6.28868 81.2582 5.89563C81.6372 5.50259 82.1496 5.19377 82.7953 4.96918C83.441 4.74458 84.1639 4.63228 84.9641 4.63228C86.1713 4.63228 87.0697 4.94812 87.6592 5.5798C88.2628 6.21147 88.5646 7.20812 88.5646 8.56973C88.5646 9.07507 88.5646 9.55935 88.5646 10.0226C88.5646 10.4858 88.5576 10.949 88.5436 11.4123C88.5436 11.8755 88.5436 12.3668 88.5436 12.8862C88.5436 13.0967 88.5366 13.3354 88.5225 13.6021C88.5085 13.8688 88.4874 14.1495 88.4593 14.4443C88.698 14.4303 88.9436 14.4162 89.1963 14.4022C89.449 14.3882 89.6876 14.3811 89.9122 14.3811V15.4971H86.5643ZM86.3748 10.4437C85.9256 10.4718 85.4624 10.5349 84.9851 10.6332C84.5219 10.7315 84.1008 10.8789 83.7218 11.0754C83.3428 11.2719 83.0339 11.5246 82.7953 11.8334C82.5707 12.1422 82.4584 12.5142 82.4584 12.9493C82.4865 13.4266 82.6409 13.7775 82.9216 14.0021C83.2164 14.2267 83.5604 14.339 83.9534 14.339C84.4447 14.339 84.8798 14.2478 85.2589 14.0653C85.6379 13.8688 86.0098 13.6021 86.3748 13.2652C86.3608 13.1108 86.3538 12.9564 86.3538 12.802C86.3538 12.6335 86.3538 12.458 86.3538 12.2756C86.3538 12.1492 86.3538 11.9176 86.3538 11.5807C86.3678 11.2298 86.3748 10.8508 86.3748 10.4437Z" fill="black"/>
<path d="M71.7849 15.4972V14.6128C72.206 14.6128 72.5008 14.5146 72.6692 14.318C72.8377 14.1215 72.943 13.8478 72.9851 13.4969C73.0272 13.1459 73.0482 12.7388 73.0482 12.2756V7.58016C73.0482 7.32749 73.0482 7.08886 73.0482 6.86426C73.0623 6.62563 73.0833 6.37296 73.1114 6.10625H71.9533C71.3638 6.10625 70.9286 6.26768 70.6479 6.59054C70.3812 6.91339 70.2478 7.50296 70.2478 8.35923H69.2582L69.3424 4.96924H78.9439L79.0492 8.35923H78.0595C78.0455 7.50296 77.9051 6.91339 77.6384 6.59054C77.3717 6.26768 76.9155 6.10625 76.2698 6.10625H75.2381V12.8862C75.2381 13.1389 75.231 13.3986 75.217 13.6653C75.217 13.918 75.1959 14.1777 75.1538 14.4444L76.5014 14.3812V15.4972H71.7849Z" fill="black"/>
<path d="M58.6394 15.4972V14.6128C59.1027 14.5988 59.4255 14.4724 59.608 14.2338C59.8045 13.9811 59.9028 13.567 59.9028 12.9915V7.58016C59.9028 7.32749 59.9028 7.0678 59.9028 6.8011C59.9168 6.53439 59.9379 6.2747 59.966 6.02203C59.7414 6.03607 59.5097 6.0501 59.2711 6.06414C59.0465 6.06414 58.836 6.07116 58.6394 6.0852V4.96924H63.3559V5.85358C62.9348 5.85358 62.633 5.94482 62.4505 6.12731C62.2821 6.30979 62.1768 6.54141 62.1347 6.82215C62.1066 7.1029 62.0926 7.39768 62.0926 7.7065V9.30674L63.2928 9.26463C64.5 9.23656 65.4405 9.35587 66.1143 9.62258C66.7881 9.88929 67.2583 10.2613 67.525 10.7385C67.8058 11.2158 67.9461 11.7422 67.9461 12.3177C67.9461 13.0196 67.7847 13.6092 67.4618 14.0864C67.139 14.5497 66.7109 14.9006 66.1774 15.1392C65.644 15.3778 65.0615 15.4972 64.4298 15.4972H58.6394ZM62.0294 14.4444C62.1979 14.4584 62.3874 14.4654 62.5979 14.4654C62.8225 14.4654 63.0331 14.4654 63.2296 14.4654C63.4261 14.4514 63.5735 14.4444 63.6718 14.4444C64.2614 14.4444 64.7527 14.2829 65.1457 13.9601C65.5528 13.6232 65.7563 13.0968 65.7563 12.3809C65.7563 11.6931 65.5598 11.1667 65.1668 10.8017C64.7877 10.4227 64.2684 10.2332 63.6086 10.2332C63.3279 10.2332 63.0612 10.2402 62.8085 10.2543C62.5558 10.2543 62.3172 10.2613 62.0926 10.2753V13.2442C62.0926 13.4969 62.0856 13.7285 62.0715 13.939C62.0575 14.1356 62.0435 14.304 62.0294 14.4444Z" fill="black"/>
<path d="M46.6341 15.7498C46.0726 15.7498 45.6304 15.6235 45.3075 15.3708C44.9847 15.1182 44.8232 14.7883 44.8232 14.3812C44.8232 14.0162 44.9215 13.7285 45.118 13.5179C45.3146 13.3074 45.5883 13.1951 45.9392 13.181C46.3042 13.181 46.5639 13.2793 46.7183 13.4758C46.8867 13.6583 46.9709 13.8548 46.9709 14.0654C46.9709 14.1496 46.9639 14.2338 46.9499 14.318C46.9359 14.3882 46.9148 14.4444 46.8867 14.4865C46.9569 14.5286 47.0201 14.5497 47.0762 14.5497C47.385 14.5497 47.6868 14.2549 47.9816 13.6653C48.2904 13.0757 48.5572 12.1563 48.7818 10.907C49.0204 9.64364 49.1888 8.0083 49.2871 6.00097L47.3078 6.10625V4.96924H56.804V5.85358C56.397 5.85358 56.1022 5.95184 55.9197 6.14836C55.7512 6.34489 55.646 6.61861 55.6038 6.96954C55.5758 7.32047 55.5617 7.72755 55.5617 8.19078V12.8862C55.5477 13.1389 55.5337 13.3986 55.5196 13.6653C55.5056 13.918 55.4775 14.1777 55.4354 14.4444L56.783 14.3812V15.4972H52.0665V14.6128C52.4876 14.6128 52.7824 14.5146 52.9508 14.318C53.1333 14.1215 53.2386 13.8478 53.2666 13.4969C53.3088 13.1459 53.3368 12.7388 53.3509 12.2756V7.58016C53.3509 7.32749 53.3509 7.07482 53.3509 6.82215C53.3649 6.56948 53.393 6.31681 53.4351 6.06414H51.6664C51.2453 6.06414 50.9505 6.18346 50.7821 6.42209C50.6136 6.66072 50.5294 7.00464 50.5294 7.45383C50.4592 8.59084 50.3399 9.65767 50.1714 10.6543C50.003 11.651 49.7644 12.5353 49.4555 13.3074C49.1608 14.0654 48.7747 14.6619 48.2975 15.0971C47.8342 15.5323 47.2798 15.7498 46.6341 15.7498Z" fill="black"/>
<path d="M36.1454 21.2033C35.6822 21.2033 35.2822 21.077 34.9453 20.8243C34.6224 20.5857 34.461 20.2347 34.461 19.7715C34.461 19.4767 34.5522 19.21 34.7347 18.9714C34.9312 18.7327 35.1839 18.6134 35.4927 18.6134C35.8296 18.5994 36.0682 18.7047 36.2086 18.9293C36.363 19.1539 36.4402 19.3855 36.4402 19.6241C36.4402 19.6662 36.4402 19.7083 36.4402 19.7504C36.4402 19.7926 36.4332 19.8417 36.4192 19.8978C36.4613 19.9259 36.5245 19.9329 36.6087 19.9189C36.7631 19.9049 36.9315 19.8206 37.114 19.6662C37.2965 19.5118 37.4649 19.2942 37.6194 19.0135C37.7878 18.7047 37.9773 18.2765 38.1879 17.7291C38.3984 17.1816 38.63 16.55 38.8827 15.8341L35.5769 8.92774C35.1979 8.14165 34.9312 7.53103 34.7768 7.09588C34.6364 6.64669 34.5452 6.29575 34.5031 6.04308L33.4924 6.0852V4.96924H38.1458V5.83253H38.1036C37.5281 5.88867 37.2123 6.10625 37.1561 6.48526C37.114 6.86426 37.2474 7.38364 37.5562 8.04339L39.8723 13.1389C40.139 12.423 40.4057 11.6439 40.6725 10.8017C40.9532 9.95947 41.241 9.09618 41.5357 8.21184C41.634 7.94513 41.7323 7.66439 41.8305 7.3696C41.9428 7.06078 42.0551 6.78004 42.1674 6.52737C42.2938 6.2747 42.4131 6.09923 42.5254 6.00097L41.1567 6.0852V4.96924H44.6099V5.83253C44.1186 6.00097 43.7326 6.30979 43.4518 6.75898C43.1851 7.20818 42.9254 7.77668 42.6728 8.46451L40.0408 15.8762C39.6337 17.0413 39.2547 18.0168 38.9038 18.8029C38.5528 19.6031 38.1598 20.1996 37.7246 20.5927C37.3035 20.9998 36.7771 21.2033 36.1454 21.2033Z" fill="black"/>
<path d="M28.2824 15.834C27.3559 15.834 26.5698 15.7077 25.9241 15.455C25.2784 15.2023 24.7871 14.8865 24.4502 14.5075C24.1273 14.1144 23.9659 13.7144 23.9659 13.3073C23.9659 12.9283 24.0642 12.6054 24.2607 12.3387C24.4572 12.072 24.738 11.9387 25.1029 11.9387C25.496 11.9387 25.7767 12.065 25.9452 12.3177C26.1136 12.5703 26.1978 12.809 26.1978 13.0336C26.1978 13.1599 26.1698 13.3073 26.1136 13.4757C26.0575 13.6301 25.9662 13.7705 25.8399 13.8968C26.0224 14.2618 26.3452 14.5215 26.8085 14.6759C27.2717 14.8163 27.7279 14.8865 28.1771 14.8865C28.8088 14.8865 29.3422 14.711 29.7773 14.3601C30.2265 13.9951 30.4511 13.4406 30.4511 12.6967C30.4511 11.9106 30.2125 11.3561 29.7352 11.0333C29.272 10.6964 28.7316 10.5279 28.1139 10.5279H26.9558V9.5804H27.9244C28.4438 9.5804 28.8439 9.48916 29.1246 9.30667C29.4194 9.11015 29.6299 8.85748 29.7563 8.54866C29.8967 8.22581 29.9668 7.87487 29.9668 7.49587C29.9668 6.87823 29.7984 6.40798 29.4615 6.08513C29.1246 5.76227 28.6824 5.60084 28.135 5.60084C27.6717 5.60084 27.2506 5.72718 26.8716 5.97985C26.4926 6.21848 26.1838 6.54836 25.9452 6.96947C25.7206 7.39059 25.5872 7.88189 25.5451 8.44338H24.6397V4.73755H25.7557L25.7346 5.47451C26.1557 5.15165 26.6049 4.93407 27.0822 4.82178C27.5735 4.69544 28.0437 4.63227 28.4929 4.63227C29.5598 4.61824 30.4371 4.84985 31.1249 5.32712C31.8127 5.80438 32.1566 6.46413 32.1566 7.30637C32.1566 7.89593 31.9742 8.41531 31.6092 8.8645C31.2442 9.31369 30.7108 9.64357 30.0089 9.85412C30.8652 9.98046 31.539 10.2893 32.0303 10.7806C32.5216 11.2578 32.7673 11.8825 32.7673 12.6546C32.7673 13.3003 32.5778 13.8618 32.1988 14.339C31.8198 14.8163 31.2934 15.1883 30.6196 15.455C29.9458 15.7077 29.1667 15.834 28.2824 15.834Z" fill="black"/>
<path d="M17.8383 15.834C16.8557 15.834 15.9714 15.6094 15.1853 15.1602C14.4132 14.697 13.8026 14.0513 13.3534 13.2231C12.9042 12.3808 12.6796 11.3912 12.6796 10.2542C12.6796 9.27159 12.8972 8.35215 13.3324 7.49588C13.7816 6.63961 14.4062 5.95178 15.2063 5.43241C16.0065 4.89899 16.9329 4.63228 17.9857 4.63228C18.5753 4.63228 19.1297 4.72352 19.6491 4.90601C20.1825 5.08849 20.6528 5.37626 21.0599 5.7693C21.481 6.1483 21.8109 6.64663 22.0495 7.26427C22.2881 7.86787 22.4074 8.60482 22.4074 9.47513L15.1642 9.60147C15.1642 10.556 15.2695 11.4052 15.4801 12.1492C15.7047 12.8932 16.0626 13.4687 16.5539 13.8758C17.0452 14.2829 17.6839 14.4864 18.47 14.4864C18.849 14.4864 19.2491 14.4233 19.6702 14.2969C20.1053 14.1565 20.5124 13.96 20.8914 13.7074C21.2845 13.4547 21.6143 13.1529 21.881 12.802L22.5338 13.3705C22.1127 14.0021 21.6284 14.5005 21.0809 14.8654C20.5335 15.2164 19.972 15.462 19.3964 15.6024C18.835 15.7568 18.3156 15.834 17.8383 15.834ZM15.2484 8.50656H20.1123C20.1123 7.97315 20.0351 7.49588 19.8807 7.07476C19.7404 6.63961 19.5158 6.2957 19.2069 6.04303C18.8981 5.79036 18.5051 5.66402 18.0278 5.66402C17.2838 5.66402 16.6732 5.90265 16.196 6.37992C15.7187 6.84315 15.4029 7.55203 15.2484 8.50656Z" fill="black"/>
<path d="M0 14.5706C0.463229 14.5426 0.793104 14.4443 0.989625 14.2759C1.20018 14.1074 1.33354 13.8547 1.38969 13.5178C1.44584 13.181 1.47391 12.7528 1.47391 12.2334V3.4742C1.47391 3.16539 1.48093 2.8706 1.49497 2.58986C1.509 2.29508 1.52304 2.04241 1.53708 1.83185C1.29844 1.84589 1.03876 1.85992 0.758011 1.87396C0.477266 1.888 0.224596 1.90203 0 1.91607V0.758C0.828197 0.743963 1.67043 0.736944 2.5267 0.736944C3.38297 0.722907 4.25328 0.715888 5.13763 0.715888C6.45713 0.715888 7.57309 0.877317 8.48551 1.20017C9.41197 1.50899 10.1208 1.98626 10.6122 2.63197C11.1175 3.26365 11.3772 4.06377 11.3912 5.03234C11.4053 5.57979 11.307 6.1483 11.0964 6.73786C10.8859 7.31339 10.5279 7.85382 10.0226 8.35916C9.51725 8.85047 8.82942 9.25053 7.95911 9.55935C7.10284 9.86817 6.02198 10.0226 4.71651 10.0226C4.57614 10.0366 4.41471 10.0436 4.23223 10.0436C4.06378 10.0436 3.88832 10.0366 3.70583 10.0226V12.6756C3.70583 13.0546 3.69881 13.3985 3.68477 13.7074C3.68477 14.0021 3.67074 14.2408 3.64266 14.4233C3.83918 14.4092 4.04974 14.3952 4.27434 14.3811C4.49893 14.3671 4.71651 14.3601 4.92707 14.3601C5.15167 14.346 5.35521 14.332 5.53769 14.318V15.4971H0V14.5706ZM3.70583 8.90662C3.94446 8.93469 4.148 8.95575 4.31645 8.96978C4.49893 8.96978 4.70949 8.96978 4.94813 8.96978C5.73421 8.96978 6.42906 8.82239 7.03266 8.52761C7.63626 8.23283 8.1065 7.80469 8.4434 7.2432C8.78029 6.68171 8.94874 6.01495 8.94874 5.2429C8.94874 4.56911 8.84346 4.00762 8.6329 3.55843C8.43638 3.0952 8.15564 2.73725 7.79067 2.48458C7.43974 2.21787 7.03266 2.02837 6.56943 1.91607C6.1062 1.80377 5.6149 1.74762 5.09552 1.74762C4.6744 1.74762 4.36558 1.83185 4.16906 2.0003C3.97254 2.16874 3.8462 2.41439 3.79005 2.73725C3.73391 3.06011 3.70583 3.47421 3.70583 3.97954V8.90662Z" fill="black"/>
</svg>
