<svg width="85" height="16" viewBox="0 0 85 16" fill="none" xmlns="http://www.w3.org/2000/svg">
<path d="M74.5588 15.4621V14.5798C74.867 14.5798 75.1401 14.4958 75.3782 14.3277C75.6163 14.1456 75.8543 13.9075 76.0924 13.6134C76.3305 13.3053 76.5966 12.9621 76.8908 12.584L77.626 11.5966C77.7521 11.4145 77.8922 11.2745 78.0462 11.1764C78.2003 11.0784 78.3683 10.9944 78.5504 10.9243C77.584 10.7283 76.8838 10.3781 76.4496 9.87392C76.0294 9.35571 75.8193 8.75348 75.8193 8.0672C75.8193 7.39494 75.9804 6.82771 76.3025 6.36553C76.6247 5.90334 77.0518 5.5532 77.584 5.31511C78.1302 5.07701 78.7185 4.95797 79.3487 4.95797H85V5.84032C84.7059 5.84032 84.4678 5.89634 84.2857 6.00838C84.1036 6.12043 83.9636 6.2955 83.8655 6.53359C83.7815 6.75768 83.7395 7.0658 83.7395 7.45796V12.8571C83.7395 13.1092 83.7325 13.3683 83.7185 13.6344C83.7185 13.8865 83.6975 14.1456 83.6554 14.4117L85 14.3487V15.4621H80.3992V14.5798C80.9174 14.5798 81.2395 14.4047 81.3655 14.0546C81.4916 13.6904 81.5546 13.2423 81.5546 12.7101V11.2815L80.2731 11.3025C80.119 11.4566 79.944 11.6736 79.7479 11.9537C79.5658 12.2199 79.3767 12.5 79.1807 12.7941C78.9986 13.0742 78.8305 13.3193 78.6765 13.5294C78.2983 14.0616 77.9132 14.5168 77.521 14.8949C77.1429 15.2731 76.7577 15.4621 76.3656 15.4621H74.5588ZM80.126 10.3571C80.4062 10.3571 80.6583 10.3571 80.8823 10.3571C81.1064 10.3431 81.3305 10.3291 81.5546 10.3151V7.20586C81.5546 6.93975 81.5546 6.70866 81.5546 6.51258C81.5686 6.31651 81.5826 6.14844 81.5966 6.00838C81.3445 5.99438 81.0574 5.98737 80.7353 5.98737C80.4132 5.98737 80.1751 5.99438 80.021 6.00838C79.4608 6.00838 78.9846 6.17645 78.5924 6.51258C78.2003 6.83471 77.9972 7.35292 77.9832 8.0672C77.9832 8.72546 78.1723 9.27168 78.5504 9.70585C78.9426 10.14 79.4678 10.3571 80.126 10.3571Z" fill="black"/>
<path d="M66.4135 5.84032C65.9934 5.84032 65.6992 5.93836 65.5312 6.13443C65.3631 6.33051 65.2581 6.60362 65.216 6.95376C65.188 7.3039 65.167 7.71006 65.153 8.17224V12.8571C65.153 13.1092 65.146 13.3683 65.132 13.6344C65.118 13.8865 65.097 14.1456 65.069 14.4117L66.3925 14.3487V15.4621H61.7077V14.5798C62.1278 14.5798 62.4219 14.4818 62.59 14.2857C62.7581 14.0896 62.8631 13.8165 62.9051 13.4663C62.9471 13.1162 62.9682 12.7101 62.9682 12.2479V7.563C62.9682 7.3109 62.9682 7.0518 62.9682 6.78569C62.9822 6.51959 63.0032 6.26048 63.0312 6.00838L61.7077 6.07141V4.95797H66.4135V5.84032ZM73.2412 5.84032C72.8351 5.84032 72.541 5.93836 72.3589 6.13443C72.1908 6.33051 72.0858 6.60362 72.0438 6.95376C72.0158 7.3039 72.0018 7.71006 72.0018 8.17224L71.9807 12.8571C71.9807 13.1092 71.9737 13.3683 71.9597 13.6344C71.9597 13.8865 71.9387 14.1456 71.8967 14.4117L73.2412 14.3487V15.4621H68.5354V14.5798C68.9555 14.5798 69.2497 14.4818 69.4177 14.2857C69.5858 14.0896 69.6838 13.8165 69.7118 13.4663C69.7539 13.1162 69.7749 12.7101 69.7749 12.2479L69.7959 7.563C69.7959 7.3109 69.7959 7.0518 69.7959 6.78569C69.8099 6.51959 69.8379 6.26048 69.8799 6.00838L68.5354 6.07141V4.95797H73.2412V5.84032ZM64.2076 9.53779H70.4892V10.6302L64.2076 10.6932V9.53779Z" fill="black"/>
<path d="M53.0371 5.84032C52.6169 5.84032 52.3228 5.93836 52.1548 6.13443C51.9867 6.33051 51.8817 6.60362 51.8396 6.95376C51.8116 7.3039 51.7906 7.71006 51.7766 8.17224V12.8571C51.7766 13.1092 51.7696 13.3683 51.7556 13.6344C51.7416 13.8865 51.7206 14.1456 51.6926 14.4117L53.0161 14.3487V15.4621H48.3312V14.5798C48.7514 14.5798 49.0455 14.4818 49.2136 14.2857C49.3817 14.0896 49.4867 13.8165 49.5287 13.4663C49.5707 13.1162 49.5917 12.7101 49.5917 12.2479V7.563C49.5917 7.3109 49.5917 7.0518 49.5917 6.78569C49.6057 6.51959 49.6268 6.26048 49.6548 6.00838L48.3312 6.07141V4.95797H53.0371V5.84032ZM59.8648 5.84032C59.4587 5.84032 59.1645 5.93836 58.9825 6.13443C58.8144 6.33051 58.7094 6.60362 58.6674 6.95376C58.6393 7.3039 58.6253 7.71006 58.6253 8.17224L58.6043 12.8571C58.6043 13.1092 58.5973 13.3683 58.5833 13.6344C58.5833 13.8865 58.5623 14.1456 58.5203 14.4117L59.8648 14.3487V15.4621H55.159V14.5798C55.5791 14.5798 55.8732 14.4818 56.0413 14.2857C56.2094 14.0896 56.3074 13.8165 56.3354 13.4663C56.3774 13.1162 56.3984 12.7101 56.3984 12.2479L56.4195 7.563C56.4195 7.3109 56.4195 7.0518 56.4195 6.78569C56.4335 6.51959 56.4615 6.26048 56.5035 6.00838L55.159 6.07141V4.95797H59.8648V5.84032ZM50.8312 9.53779H57.1127V10.6302L50.8312 10.6932V9.53779Z" fill="black"/>
<path d="M41.9864 15.7983C41.006 15.7983 40.1237 15.5742 39.3394 15.126C38.5691 14.6638 37.9598 14.0196 37.5116 13.1932C37.0635 12.3529 36.8394 11.3655 36.8394 10.2311C36.8394 9.25068 37.0564 8.33331 37.4906 7.47897C37.9388 6.62463 38.562 5.93836 39.3604 5.42015C40.1587 4.88794 41.083 4.62183 42.1335 4.62183C42.7217 4.62183 43.2749 4.71287 43.7931 4.89494C44.3253 5.07701 44.7945 5.36413 45.2007 5.75628C45.6209 6.13444 45.95 6.63163 46.1881 7.24788C46.4262 7.85012 46.5452 8.58541 46.5452 9.45376L39.3183 9.57981C39.3183 10.5322 39.4234 11.3795 39.6335 12.1218C39.8576 12.8641 40.2147 13.4383 40.7049 13.8445C41.1951 14.2507 41.8323 14.4537 42.6167 14.4537C42.9948 14.4537 43.394 14.3907 43.8141 14.2647C44.2483 14.1246 44.6545 13.9285 45.0326 13.6764C45.4248 13.4243 45.7539 13.1232 46.02 12.7731L46.6713 13.3403C46.2511 13.9706 45.7679 14.4678 45.2217 14.8319C44.6755 15.182 44.1153 15.4271 43.541 15.5672C42.9808 15.7212 42.4626 15.7983 41.9864 15.7983ZM39.4024 8.48737H44.2553C44.2553 7.95516 44.1783 7.47897 44.0242 7.0588C43.8842 6.62463 43.6601 6.28149 43.352 6.02939C43.0438 5.77729 42.6517 5.65124 42.1755 5.65124C41.4332 5.65124 40.8239 5.88934 40.3478 6.36553C39.8716 6.82771 39.5564 7.53499 39.4024 8.48737Z" fill="black"/>
<path d="M18.9934 15.4621V14.5798C19.4136 14.5798 19.7077 14.4818 19.8757 14.2857C20.0438 14.0896 20.1489 13.8165 20.1909 13.4663C20.2329 13.1162 20.2539 12.7101 20.2539 12.2479V7.563C20.2539 7.3109 20.2539 7.0518 20.2539 6.78569C20.2679 6.51959 20.2889 6.26048 20.3169 6.00838L18.9934 6.07141V4.95797H23.6362V5.84032C23.2301 5.84032 22.936 5.93836 22.7539 6.13443C22.5858 6.33051 22.4878 6.60362 22.4598 6.95376C22.4318 7.3039 22.4108 7.71006 22.3967 8.17224V12.8571C22.3967 13.1092 22.3897 13.3613 22.3757 13.6134C22.3757 13.8655 22.3547 14.1176 22.3127 14.3697L24.7707 14.3487C25.1909 14.3347 25.485 14.2507 25.653 14.0966C25.8211 13.9285 25.9262 13.6904 25.9682 13.3823C26.0102 13.0742 26.0312 12.696 26.0312 12.2479V7.563C26.0312 7.3109 26.0382 7.0518 26.0522 6.78569C26.0662 6.51959 26.0872 6.26048 26.1152 6.00838L24.8757 6.07141V4.95797H29.4135V5.84032C29.0074 5.84032 28.7203 5.93836 28.5522 6.13443C28.3841 6.33051 28.2791 6.60362 28.2371 6.95376C28.2091 7.3039 28.1881 7.71006 28.174 8.17224V12.8571C28.174 13.1092 28.167 13.3613 28.153 13.6134C28.153 13.8655 28.139 14.1176 28.111 14.3697L30.4219 14.3487C30.8421 14.3347 31.1362 14.2507 31.3043 14.0966C31.4864 13.9285 31.5914 13.6904 31.6194 13.3823C31.6614 13.0742 31.6894 12.696 31.7035 12.2479V7.563C31.7035 7.3109 31.7035 7.0518 31.7035 6.78569C31.7175 6.51959 31.7455 6.26048 31.7875 6.00838L30.548 6.07141V4.95797H35.1068V5.84032C34.7006 5.84032 34.4065 5.93836 34.2245 6.13443C34.0564 6.33051 33.9513 6.60362 33.9093 6.95376C33.8813 7.3039 33.8603 7.71006 33.8463 8.17224V12.8571C33.8463 13.1092 33.8393 13.3683 33.8253 13.6344C33.8113 13.8865 33.7903 14.1456 33.7623 14.4117L35.0858 14.3487V15.4621H18.9934Z" fill="black"/>
<path d="M12.756 14.5798C13.1761 14.5798 13.4702 14.4818 13.6383 14.2857C13.8064 14.0896 13.9044 13.8165 13.9324 13.4664C13.9744 13.1162 13.9955 12.7101 13.9955 12.2479V7.89914C13.9955 7.66105 14.0025 7.42295 14.0165 7.18486C14.0305 6.93276 14.0515 6.66665 14.0795 6.38654C13.8414 6.40055 13.5893 6.41455 13.3232 6.42856C13.0571 6.42856 12.812 6.43556 12.5879 6.44957V5.33612C13.2181 5.33612 13.7153 5.30811 14.0795 5.25209C14.4576 5.18206 14.7448 5.10503 14.9408 5.021C15.1509 4.93696 15.305 4.84593 15.403 4.74789H16.2013V12.8571C16.2013 13.1092 16.1943 13.3683 16.1803 13.6344C16.1663 13.8865 16.1453 14.1456 16.1173 14.4117C16.3414 14.3977 16.5655 14.3907 16.7896 14.3907C17.0277 14.3767 17.2447 14.3627 17.4408 14.3487V15.4622H12.756V14.5798ZM14.9828 2.81512C14.6187 2.81512 14.3106 2.68207 14.0585 2.41596C13.8064 2.13585 13.6803 1.79972 13.6803 1.40756C13.6803 1.0154 13.8134 0.686274 14.0795 0.420168C14.3456 0.140056 14.6467 0 14.9828 0C15.347 0 15.6481 0.140056 15.8862 0.420168C16.1383 0.686274 16.2644 1.0154 16.2644 1.40756C16.2644 1.79972 16.1383 2.13585 15.8862 2.41596C15.6481 2.68207 15.347 2.81512 14.9828 2.81512Z" fill="black"/>
<path d="M0 14.5378C0.462184 14.5098 0.791315 14.4117 0.987393 14.2437C1.19748 14.0756 1.33053 13.8235 1.38655 13.4874C1.44257 13.1512 1.47059 12.7241 1.47059 12.2059V3.46638C1.47059 3.15826 1.47759 2.86414 1.49159 2.58403C1.5056 2.28992 1.5196 2.03782 1.53361 1.82773C1.29552 1.84174 1.03641 1.85574 0.756301 1.86975C0.47619 1.88375 0.224089 1.89776 0 1.91176V0.756305C0.826329 0.7423 1.66666 0.735297 2.521 0.735297C3.37534 0.721292 4.24369 0.714289 5.12604 0.714289C6.44256 0.714289 7.55601 0.875353 8.46637 1.19748C9.39074 1.5056 10.098 1.98179 10.5882 2.62605C11.0924 3.2563 11.3515 4.05462 11.3655 5.021C11.3795 5.56722 11.2815 6.13445 11.0714 6.72268C10.8613 7.29691 10.5042 7.83612 9.99998 8.34032C9.49578 8.83052 8.80951 9.22968 7.94116 9.5378C7.08682 9.84592 6.00839 9.99998 4.70587 9.99998C4.56582 10.014 4.40475 10.021 4.22268 10.021C4.05461 10.021 3.87954 10.014 3.69747 9.99998V12.647C3.69747 13.0252 3.69047 13.3683 3.67646 13.6764C3.67646 13.9706 3.66246 14.2087 3.63445 14.3907C3.83052 14.3767 4.04061 14.3627 4.2647 14.3487C4.48879 14.3347 4.70587 14.3277 4.91596 14.3277C5.14004 14.3137 5.34313 14.2997 5.5252 14.2857V15.4622H0V14.5378ZM3.69747 8.88654C3.93557 8.91455 4.13865 8.93556 4.30671 8.94957C4.48879 8.94957 4.69887 8.94957 4.93696 8.94957C5.72128 8.94957 6.41455 8.80251 7.01679 8.50839C7.61903 8.21427 8.08822 7.7871 8.42435 7.22688C8.76048 6.66666 8.92855 6.00139 8.92855 5.23109C8.92855 4.55882 8.82351 3.9986 8.61343 3.55042C8.41735 3.08823 8.13724 2.73109 7.77309 2.47899C7.42295 2.21288 7.01679 2.02381 6.55461 1.91176C6.09242 1.79972 5.60223 1.7437 5.08402 1.7437C4.66386 1.7437 4.35573 1.82773 4.15966 1.9958C3.96358 2.16387 3.83753 2.40896 3.7815 2.73109C3.72548 3.05322 3.69747 3.46638 3.69747 3.97058V8.88654Z" fill="black"/>
</svg>
