<svg width="150" height="38" viewBox="0 0 150 38" fill="none" xmlns="http://www.w3.org/2000/svg">
<path d="M0 7.5C0 3.35786 3.35786 0 7.5 0H142.5C146.642 0 150 3.35786 150 7.5V30C150 34.1421 146.642 37.5 142.5 37.5H7.5C3.35787 37.5 0 34.1421 0 30V7.5Z" fill="#B9F0B7" fill-opacity="0.5"/>
<path d="M77.1679 23.442C76.9839 23.442 76.8199 23.37 76.6759 23.226C76.5399 23.074 76.4719 22.89 76.4719 22.674C76.4719 22.458 76.5439 22.274 76.6879 22.122C76.8319 21.97 76.9959 21.894 77.1799 21.894C77.3799 21.894 77.5439 21.97 77.6719 22.122C77.8079 22.274 77.8759 22.458 77.8759 22.674C77.8759 22.89 77.8039 23.074 77.6599 23.226C77.5159 23.37 77.3519 23.442 77.1679 23.442ZM77.1679 18.606C76.9839 18.606 76.8199 18.534 76.6759 18.39C76.5399 18.238 76.4719 18.054 76.4719 17.838C76.4719 17.622 76.5439 17.438 76.6879 17.286C76.8319 17.134 76.9959 17.058 77.1799 17.058C77.3799 17.058 77.5439 17.134 77.6719 17.286C77.8079 17.438 77.8759 17.622 77.8759 17.838C77.8759 18.054 77.8039 18.238 77.6599 18.39C77.5159 18.534 77.3519 18.606 77.1679 18.606Z" fill="#38693C"/>
<path d="M72.1524 23.442C71.5924 23.442 71.0844 23.314 70.6284 23.058C70.1724 22.794 69.8084 22.434 69.5364 21.978C69.2724 21.514 69.1404 20.986 69.1404 20.394C69.1404 19.762 69.2724 19.194 69.5364 18.69C69.8004 18.186 70.1604 17.79 70.6164 17.502C71.0724 17.206 71.5844 17.058 72.1524 17.058C72.7124 17.058 73.2204 17.194 73.6764 17.466C74.1324 17.73 74.4964 18.09 74.7684 18.546C75.0404 19.002 75.1764 19.522 75.1764 20.106C75.1764 20.722 75.0404 21.286 74.7684 21.798C74.5044 22.302 74.1444 22.702 73.6884 22.998C73.2324 23.294 72.7204 23.442 72.1524 23.442ZM72.2484 22.962C72.6724 22.962 73.0084 22.842 73.2564 22.602C73.5044 22.362 73.6804 22.05 73.7844 21.666C73.8964 21.282 73.9524 20.878 73.9524 20.454C73.9524 20.094 73.9164 19.742 73.8444 19.398C73.7804 19.046 73.6764 18.73 73.5324 18.45C73.3884 18.162 73.2004 17.934 72.9684 17.766C72.7444 17.598 72.4724 17.514 72.1524 17.514C71.7364 17.514 71.3964 17.634 71.1324 17.874C70.8684 18.114 70.6724 18.426 70.5444 18.81C70.4244 19.194 70.3644 19.606 70.3644 20.046C70.3644 20.542 70.4324 21.014 70.5684 21.462C70.7044 21.902 70.9124 22.262 71.1924 22.542C71.4724 22.822 71.8244 22.962 72.2484 22.962Z" fill="#38693C"/>
<path d="M64.1837 17.61C63.9357 17.61 63.7637 17.674 63.6677 17.802C63.5717 17.922 63.5157 18.094 63.4997 18.318C63.4837 18.534 63.4717 18.786 63.4637 19.074L63.4517 21.978C63.4517 22.138 63.4477 22.282 63.4397 22.41C63.4397 22.53 63.4277 22.658 63.4037 22.794L64.1597 22.758V23.25H61.7117V22.89C61.9597 22.89 62.1317 22.83 62.2277 22.71C62.3237 22.582 62.3797 22.41 62.3957 22.194C62.4197 21.97 62.4317 21.714 62.4317 21.426V18.522C62.4317 18.362 62.4317 18.222 62.4317 18.102C62.4397 17.974 62.4557 17.842 62.4797 17.706L61.7237 17.742V17.25H64.1837V17.61ZM68.1197 17.61C67.8797 17.61 67.7077 17.674 67.6037 17.802C67.5077 17.922 67.4517 18.094 67.4357 18.318C67.4277 18.534 67.4197 18.786 67.4117 19.074L67.3997 21.978C67.3997 22.138 67.3957 22.282 67.3877 22.41C67.3877 22.53 67.3757 22.658 67.3517 22.794L68.1077 22.758V23.25H65.6597V22.89C65.9077 22.89 66.0797 22.83 66.1757 22.71C66.2717 22.582 66.3277 22.41 66.3437 22.194C66.3597 21.97 66.3677 21.714 66.3677 21.426L66.3797 18.522C66.3797 18.362 66.3797 18.222 66.3797 18.102C66.3877 17.974 66.4037 17.842 66.4277 17.706L65.6717 17.742V17.25H68.1197V17.61ZM63.0317 19.938H66.7997V20.406L63.0317 20.454V19.938Z" fill="#38693C"/>
<path d="M58.1116 23.442C57.5596 23.442 57.0596 23.314 56.6116 23.058C56.1716 22.794 55.8236 22.426 55.5676 21.954C55.3116 21.474 55.1836 20.91 55.1836 20.262C55.1836 19.702 55.3076 19.178 55.5556 18.69C55.8116 18.202 56.1676 17.81 56.6236 17.514C57.0796 17.21 57.6076 17.058 58.2076 17.058C58.5436 17.058 58.8556 17.114 59.1436 17.226C59.4396 17.33 59.6996 17.494 59.9236 17.718C60.1476 17.934 60.3236 18.21 60.4516 18.546C60.5796 18.874 60.6436 19.262 60.6436 19.71L56.4196 19.782C56.4196 20.39 56.4836 20.926 56.6116 21.39C56.7476 21.846 56.9636 22.202 57.2596 22.458C57.5556 22.706 57.9356 22.83 58.3996 22.83C58.6476 22.83 58.8996 22.786 59.1556 22.698C59.4196 22.61 59.6636 22.49 59.8876 22.338C60.1116 22.186 60.2916 22.018 60.4276 21.834L60.7156 22.074C60.4996 22.41 60.2396 22.678 59.9356 22.878C59.6316 23.078 59.3196 23.222 58.9996 23.31C58.6796 23.398 58.3836 23.442 58.1116 23.442ZM56.4556 19.278H59.5156C59.5156 18.99 59.4716 18.714 59.3836 18.45C59.3036 18.178 59.1676 17.958 58.9756 17.79C58.7836 17.614 58.5316 17.526 58.2196 17.526C57.7556 17.526 57.3676 17.666 57.0556 17.946C56.7516 18.218 56.5516 18.662 56.4556 19.278Z" fill="#38693C"/>
<path d="M45.2468 23.25V22.89C45.4948 22.89 45.6668 22.83 45.7628 22.71C45.8588 22.582 45.9148 22.41 45.9308 22.194C45.9548 21.97 45.9668 21.714 45.9668 21.426V18.522C45.9668 18.362 45.9668 18.222 45.9668 18.102C45.9748 17.974 45.9908 17.842 46.0148 17.706L45.2588 17.742V17.25H47.7188V17.61C47.4708 17.61 47.2948 17.674 47.1908 17.802C47.0948 17.922 47.0388 18.094 47.0228 18.318C47.0068 18.534 46.9948 18.786 46.9868 19.074V21.978C46.9868 22.138 46.9828 22.282 46.9748 22.41C46.9748 22.53 46.9628 22.658 46.9388 22.794L48.5108 22.77C48.7588 22.762 48.9308 22.71 49.0268 22.614C49.1228 22.51 49.1788 22.358 49.1948 22.158C49.2188 21.958 49.2348 21.714 49.2428 21.426V18.522C49.2428 18.362 49.2428 18.222 49.2428 18.102C49.2508 17.974 49.2668 17.842 49.2908 17.706L48.5348 17.742V17.25H50.9828V17.61C50.7428 17.61 50.5708 17.674 50.4668 17.802C50.3708 17.922 50.3108 18.094 50.2868 18.318C50.2708 18.534 50.2588 18.786 50.2508 19.074V21.978C50.2508 22.138 50.2468 22.282 50.2388 22.41C50.2388 22.53 50.2308 22.658 50.2148 22.794L51.6788 22.77C51.9268 22.762 52.0988 22.71 52.1948 22.614C52.2908 22.51 52.3468 22.358 52.3628 22.158C52.3868 21.958 52.4028 21.714 52.4108 21.426V18.522C52.4108 18.362 52.4108 18.222 52.4108 18.102C52.4188 17.974 52.4348 17.842 52.4588 17.706L51.7028 17.742V17.25H54.1508V17.61C53.9108 17.61 53.7388 17.674 53.6348 17.802C53.5388 17.922 53.4828 18.094 53.4668 18.318C53.4508 18.534 53.4388 18.786 53.4308 19.074V21.978C53.4228 22.138 53.4148 22.282 53.4068 22.41C53.4068 22.53 53.3948 22.658 53.3708 22.794L54.1268 22.758V23.25H45.2468Z" fill="#38693C"/>
<path d="M37.9785 26.31V25.95C38.2265 25.95 38.3985 25.886 38.4945 25.758C38.5905 25.638 38.6465 25.466 38.6625 25.242C38.6785 25.026 38.6865 24.774 38.6865 24.486L38.7105 18.69C38.7105 18.562 38.7105 18.434 38.7105 18.306C38.7185 18.178 38.7345 18.046 38.7585 17.91C38.6145 17.918 38.4705 17.926 38.3265 17.934C38.1905 17.942 38.0505 17.95 37.9065 17.958V17.454C38.2585 17.454 38.5225 17.438 38.6985 17.406C38.8825 17.374 39.0145 17.334 39.0945 17.286C39.1825 17.238 39.2545 17.186 39.3105 17.13H39.6705C39.6785 17.21 39.6865 17.306 39.6945 17.418C39.7025 17.522 39.7105 17.642 39.7185 17.778C39.9585 17.562 40.2425 17.39 40.5705 17.262C40.9065 17.126 41.2425 17.058 41.5785 17.058C42.0425 17.058 42.4745 17.178 42.8745 17.418C43.2745 17.658 43.5985 18.002 43.8465 18.45C44.0945 18.89 44.2185 19.418 44.2185 20.034C44.2185 20.714 44.0745 21.31 43.7865 21.822C43.5065 22.334 43.1345 22.734 42.6705 23.022C42.2065 23.302 41.7025 23.442 41.1585 23.442C40.8785 23.442 40.6185 23.406 40.3785 23.334C40.1465 23.27 39.9265 23.174 39.7185 23.046V25.038C39.7185 25.198 39.7145 25.338 39.7065 25.458C39.7065 25.586 39.6945 25.718 39.6705 25.854C39.7985 25.846 39.9225 25.838 40.0425 25.83C40.1705 25.83 40.2985 25.826 40.4265 25.818V26.31H37.9785ZM41.1345 22.962C41.5185 22.962 41.8465 22.846 42.1185 22.614C42.3985 22.374 42.6105 22.05 42.7545 21.642C42.9065 21.226 42.9825 20.754 42.9825 20.226C42.9825 19.794 42.9185 19.382 42.7905 18.99C42.6705 18.59 42.4745 18.266 42.2025 18.018C41.9385 17.77 41.5865 17.646 41.1465 17.646C40.8745 17.646 40.6105 17.714 40.3545 17.85C40.1065 17.978 39.8985 18.134 39.7305 18.318C39.7305 18.35 39.7305 18.398 39.7305 18.462C39.7385 18.518 39.7425 18.622 39.7425 18.774C39.7425 18.918 39.7425 19.138 39.7425 19.434C39.7425 19.722 39.7385 20.114 39.7305 20.61C39.7305 21.106 39.7305 21.734 39.7305 22.494C39.9305 22.646 40.1465 22.762 40.3785 22.842C40.6185 22.922 40.8705 22.962 41.1345 22.962Z" fill="#38693C"/>
<path d="M34.4866 23.442C33.9346 23.442 33.4346 23.314 32.9866 23.058C32.5466 22.794 32.1986 22.426 31.9426 21.954C31.6866 21.474 31.5586 20.91 31.5586 20.262C31.5586 19.702 31.6826 19.178 31.9306 18.69C32.1866 18.202 32.5426 17.81 32.9986 17.514C33.4546 17.21 33.9826 17.058 34.5826 17.058C34.9186 17.058 35.2306 17.114 35.5186 17.226C35.8146 17.33 36.0746 17.494 36.2986 17.718C36.5226 17.934 36.6986 18.21 36.8266 18.546C36.9546 18.874 37.0186 19.262 37.0186 19.71L32.7946 19.782C32.7946 20.39 32.8586 20.926 32.9866 21.39C33.1226 21.846 33.3386 22.202 33.6346 22.458C33.9306 22.706 34.3106 22.83 34.7746 22.83C35.0226 22.83 35.2746 22.786 35.5306 22.698C35.7946 22.61 36.0386 22.49 36.2626 22.338C36.4866 22.186 36.6666 22.018 36.8026 21.834L37.0906 22.074C36.8746 22.41 36.6146 22.678 36.3106 22.878C36.0066 23.078 35.6946 23.222 35.3746 23.31C35.0546 23.398 34.7586 23.442 34.4866 23.442ZM32.8306 19.278H35.8906C35.8906 18.99 35.8466 18.714 35.7586 18.45C35.6786 18.178 35.5426 17.958 35.3506 17.79C35.1586 17.614 34.9066 17.526 34.5946 17.526C34.1306 17.526 33.7426 17.666 33.4306 17.946C33.1266 18.218 32.9266 18.662 32.8306 19.278Z" fill="#38693C"/>
<path d="M25.325 23.2499V22.8899C25.621 22.8819 25.813 22.7899 25.901 22.6139C25.997 22.4299 26.045 22.1819 26.045 21.8699V18.4019C26.045 18.2579 26.049 18.1299 26.057 18.0179C26.065 17.9059 26.077 17.8019 26.093 17.7059C25.965 17.7139 25.837 17.7219 25.709 17.7299C25.589 17.7299 25.465 17.7339 25.337 17.7419V17.2499C25.553 17.2499 25.829 17.2499 26.165 17.2499C26.501 17.2419 26.869 17.2379 27.269 17.2379C27.677 17.2379 28.081 17.2379 28.481 17.2379C29.041 17.2379 29.497 17.3539 29.849 17.5859C30.209 17.8099 30.385 18.1539 30.377 18.6179C30.369 18.9379 30.257 19.2379 30.041 19.5179C29.833 19.7899 29.501 19.9819 29.045 20.0939C29.589 20.1179 30.001 20.2659 30.281 20.5379C30.561 20.8019 30.701 21.1379 30.701 21.5459C30.701 21.9059 30.605 22.2139 30.413 22.4699C30.221 22.7259 29.969 22.9219 29.657 23.0579C29.345 23.1859 29.009 23.2499 28.649 23.2499H25.325ZM27.053 22.7579C27.141 22.7659 27.257 22.7699 27.401 22.7699C27.553 22.7699 27.693 22.7699 27.821 22.7699C27.957 22.7699 28.041 22.7699 28.073 22.7699C28.521 22.7699 28.877 22.6779 29.141 22.4939C29.413 22.3019 29.549 21.9979 29.549 21.5819C29.549 21.1579 29.401 20.8579 29.105 20.6819C28.809 20.4979 28.465 20.4059 28.073 20.4059C27.905 20.4059 27.729 20.4099 27.545 20.4179C27.369 20.4179 27.213 20.4219 27.077 20.4299V22.0859C27.077 22.2379 27.073 22.3699 27.065 22.4819C27.065 22.5939 27.061 22.6859 27.053 22.7579ZM27.077 19.9739L27.977 19.9619C28.305 19.9539 28.565 19.8859 28.757 19.7579C28.949 19.6219 29.085 19.4579 29.165 19.2659C29.245 19.0659 29.281 18.8699 29.273 18.6779C29.273 18.3979 29.213 18.1859 29.093 18.0419C28.973 17.8979 28.817 17.8019 28.625 17.7539C28.441 17.6979 28.241 17.6699 28.025 17.6699C27.737 17.6699 27.505 17.7219 27.329 17.8259C27.161 17.9299 27.077 18.1539 27.077 18.4979V19.9739Z" fill="#38693C"/>
<path d="M22.7853 23.25C22.7613 23.114 22.7453 22.994 22.7373 22.89C22.7293 22.786 22.7173 22.678 22.7013 22.566C22.4293 22.838 22.1333 23.054 21.8133 23.214C21.5013 23.366 21.1693 23.442 20.8173 23.442C20.2093 23.442 19.7573 23.306 19.4613 23.034C19.1653 22.754 19.0173 22.414 19.0173 22.014C19.0173 21.646 19.1293 21.33 19.3533 21.066C19.5853 20.794 19.8813 20.574 20.2413 20.406C20.6093 20.23 21.0053 20.102 21.4293 20.022C21.8613 19.934 22.2773 19.894 22.6773 19.902V19.158C22.6773 18.878 22.6533 18.614 22.6053 18.366C22.5573 18.118 22.4533 17.914 22.2933 17.754C22.1333 17.594 21.8773 17.51 21.5253 17.502C21.2933 17.494 21.0533 17.538 20.8053 17.634C20.5653 17.73 20.3893 17.894 20.2773 18.126C20.3413 18.19 20.3813 18.266 20.3973 18.354C20.4213 18.434 20.4333 18.51 20.4333 18.582C20.4333 18.678 20.3933 18.79 20.3133 18.918C20.2333 19.038 20.0933 19.094 19.8933 19.086C19.7253 19.086 19.5973 19.03 19.5093 18.918C19.4213 18.798 19.3773 18.658 19.3773 18.498C19.3773 18.226 19.4773 17.982 19.6773 17.766C19.8853 17.55 20.1693 17.378 20.5293 17.25C20.8893 17.122 21.2973 17.058 21.7533 17.058C22.4253 17.058 22.9213 17.238 23.2413 17.598C23.5613 17.95 23.7173 18.51 23.7093 19.278C23.7093 19.574 23.7093 19.874 23.7093 20.178C23.7093 20.474 23.7053 20.774 23.6973 21.078C23.6973 21.374 23.6973 21.674 23.6973 21.978C23.6973 22.106 23.6933 22.234 23.6853 22.362C23.6773 22.49 23.6653 22.634 23.6493 22.794C23.7933 22.786 23.9333 22.778 24.0693 22.77C24.2133 22.762 24.3573 22.754 24.5013 22.746V23.25H22.7853ZM22.6773 20.31C22.4053 20.318 22.1173 20.354 21.8133 20.418C21.5173 20.474 21.2413 20.562 20.9853 20.682C20.7373 20.802 20.5333 20.962 20.3733 21.162C20.2213 21.354 20.1493 21.59 20.1573 21.87C20.1733 22.166 20.2693 22.39 20.4453 22.542C20.6293 22.686 20.8453 22.758 21.0933 22.758C21.4213 22.758 21.7053 22.698 21.9453 22.578C22.1933 22.45 22.4373 22.274 22.6773 22.05C22.6693 21.962 22.6653 21.866 22.6653 21.762C22.6653 21.658 22.6653 21.55 22.6653 21.438C22.6653 21.398 22.6653 21.27 22.6653 21.054C22.6733 20.838 22.6773 20.59 22.6773 20.31Z" fill="#38693C"/>
<path d="M15.006 23.442C14.582 23.442 14.17 23.378 13.77 23.25C13.378 23.122 13.01 22.93 12.666 22.674C12.33 22.41 12.018 22.082 11.73 21.69L12.042 21.438C12.37 21.886 12.774 22.238 13.254 22.494C13.734 22.742 14.23 22.866 14.742 22.866C15.142 22.866 15.506 22.79 15.834 22.638C16.17 22.486 16.438 22.258 16.638 21.954C16.846 21.65 16.95 21.274 16.95 20.826C16.95 20.442 16.87 20.122 16.71 19.866C16.55 19.61 16.302 19.418 15.966 19.29C15.638 19.154 15.222 19.082 14.718 19.074L13.782 19.086V18.582H14.802C15.258 18.574 15.614 18.486 15.87 18.318C16.134 18.142 16.318 17.918 16.422 17.646C16.534 17.374 16.59 17.086 16.59 16.782C16.59 16.19 16.446 15.77 16.158 15.522C15.87 15.274 15.518 15.15 15.102 15.15C14.438 15.15 13.926 15.338 13.566 15.714C13.206 16.082 12.934 16.646 12.75 17.406H12.318V14.742H12.966L12.906 15.39C13.138 15.222 13.366 15.086 13.59 14.982C13.814 14.87 14.05 14.79 14.298 14.742C14.554 14.686 14.834 14.658 15.138 14.658C15.658 14.658 16.11 14.742 16.494 14.91C16.878 15.078 17.174 15.314 17.382 15.618C17.598 15.922 17.702 16.286 17.694 16.71C17.686 17.182 17.518 17.606 17.19 17.982C16.862 18.358 16.37 18.606 15.714 18.726V18.762C16.522 18.802 17.126 19.018 17.526 19.41C17.934 19.802 18.138 20.278 18.138 20.838C18.138 21.27 18.05 21.65 17.874 21.978C17.698 22.298 17.462 22.57 17.166 22.794C16.87 23.01 16.534 23.17 16.158 23.274C15.79 23.386 15.406 23.442 15.006 23.442Z" fill="#38693C"/>
<path d="M136.062 23.442C135.454 23.442 134.942 23.314 134.526 23.058C134.11 22.794 133.778 22.45 133.53 22.026C133.282 21.594 133.102 21.122 132.99 20.61C132.886 20.098 132.834 19.59 132.834 19.086C132.834 18.582 132.898 18.07 133.026 17.55C133.162 17.03 133.366 16.554 133.638 16.122C133.91 15.682 134.25 15.33 134.658 15.066C135.066 14.794 135.55 14.658 136.11 14.658C136.694 14.658 137.186 14.79 137.586 15.054C137.994 15.318 138.318 15.666 138.558 16.098C138.806 16.522 138.986 16.99 139.098 17.502C139.21 18.014 139.266 18.522 139.266 19.026C139.266 19.522 139.202 20.03 139.074 20.55C138.954 21.07 138.762 21.55 138.498 21.99C138.242 22.422 137.91 22.774 137.502 23.046C137.102 23.31 136.622 23.442 136.062 23.442ZM136.134 22.722C136.43 22.722 136.678 22.626 136.878 22.434C137.078 22.242 137.23 21.986 137.334 21.666C137.446 21.338 137.526 20.97 137.574 20.562C137.622 20.146 137.646 19.718 137.646 19.278C137.646 18.79 137.622 18.314 137.574 17.85C137.534 17.386 137.458 16.97 137.346 16.602C137.234 16.226 137.074 15.926 136.866 15.702C136.666 15.478 136.406 15.366 136.086 15.366C135.774 15.366 135.514 15.462 135.306 15.654C135.106 15.846 134.942 16.106 134.814 16.434C134.686 16.762 134.594 17.134 134.538 17.55C134.49 17.958 134.466 18.386 134.466 18.834C134.466 19.17 134.478 19.518 134.502 19.878C134.526 20.238 134.57 20.586 134.634 20.922C134.706 21.258 134.802 21.562 134.922 21.834C135.05 22.106 135.21 22.322 135.402 22.482C135.602 22.642 135.846 22.722 136.134 22.722Z" fill="#38693C"/>
<path d="M128.491 23.442C127.883 23.442 127.371 23.314 126.955 23.058C126.539 22.794 126.207 22.45 125.959 22.026C125.711 21.594 125.531 21.122 125.419 20.61C125.315 20.098 125.263 19.59 125.263 19.086C125.263 18.582 125.327 18.07 125.455 17.55C125.591 17.03 125.795 16.554 126.067 16.122C126.339 15.682 126.679 15.33 127.087 15.066C127.495 14.794 127.979 14.658 128.539 14.658C129.123 14.658 129.615 14.79 130.015 15.054C130.423 15.318 130.747 15.666 130.987 16.098C131.235 16.522 131.415 16.99 131.527 17.502C131.639 18.014 131.695 18.522 131.695 19.026C131.695 19.522 131.631 20.03 131.503 20.55C131.383 21.07 131.191 21.55 130.927 21.99C130.671 22.422 130.339 22.774 129.931 23.046C129.531 23.31 129.051 23.442 128.491 23.442ZM128.563 22.722C128.859 22.722 129.107 22.626 129.307 22.434C129.507 22.242 129.659 21.986 129.763 21.666C129.875 21.338 129.955 20.97 130.003 20.562C130.051 20.146 130.075 19.718 130.075 19.278C130.075 18.79 130.051 18.314 130.003 17.85C129.963 17.386 129.887 16.97 129.775 16.602C129.663 16.226 129.503 15.926 129.295 15.702C129.095 15.478 128.835 15.366 128.515 15.366C128.203 15.366 127.943 15.462 127.735 15.654C127.535 15.846 127.371 16.106 127.243 16.434C127.115 16.762 127.023 17.134 126.967 17.55C126.919 17.958 126.895 18.386 126.895 18.834C126.895 19.17 126.907 19.518 126.931 19.878C126.955 20.238 126.999 20.586 127.063 20.922C127.135 21.258 127.231 21.562 127.351 21.834C127.479 22.106 127.639 22.322 127.831 22.482C128.031 22.642 128.275 22.722 128.563 22.722Z" fill="#38693C"/>
<path d="M120.936 23.25V22.59C121.152 22.582 121.324 22.546 121.452 22.482C121.588 22.418 121.688 22.306 121.752 22.146C121.816 21.978 121.848 21.742 121.848 21.438L121.836 16.338L120.492 17.166L120.12 16.578L122.736 14.658H123.348V21.498C123.348 21.698 123.344 21.89 123.336 22.074C123.336 22.25 123.328 22.39 123.312 22.494C123.456 22.486 123.62 22.478 123.804 22.47C123.996 22.462 124.144 22.458 124.248 22.458V23.25H120.936Z" fill="#38693C"/>
<path d="M110.64 26.502L109.788 25.95L116.58 14.166L117.576 14.802L110.64 26.502Z" fill="#38693C"/>
<path d="M106.062 23.442C105.454 23.442 104.942 23.314 104.526 23.058C104.11 22.794 103.778 22.45 103.53 22.026C103.282 21.594 103.102 21.122 102.99 20.61C102.886 20.098 102.834 19.59 102.834 19.086C102.834 18.582 102.898 18.07 103.026 17.55C103.162 17.03 103.366 16.554 103.638 16.122C103.91 15.682 104.25 15.33 104.658 15.066C105.066 14.794 105.55 14.658 106.11 14.658C106.694 14.658 107.186 14.79 107.586 15.054C107.994 15.318 108.318 15.666 108.558 16.098C108.806 16.522 108.986 16.99 109.098 17.502C109.21 18.014 109.266 18.522 109.266 19.026C109.266 19.522 109.202 20.03 109.074 20.55C108.954 21.07 108.762 21.55 108.498 21.99C108.242 22.422 107.91 22.774 107.502 23.046C107.102 23.31 106.622 23.442 106.062 23.442ZM106.134 22.722C106.43 22.722 106.678 22.626 106.878 22.434C107.078 22.242 107.23 21.986 107.334 21.666C107.446 21.338 107.526 20.97 107.574 20.562C107.622 20.146 107.646 19.718 107.646 19.278C107.646 18.79 107.622 18.314 107.574 17.85C107.534 17.386 107.458 16.97 107.346 16.602C107.234 16.226 107.074 15.926 106.866 15.702C106.666 15.478 106.406 15.366 106.086 15.366C105.774 15.366 105.514 15.462 105.306 15.654C105.106 15.846 104.942 16.106 104.814 16.434C104.686 16.762 104.594 17.134 104.538 17.55C104.49 17.958 104.466 18.386 104.466 18.834C104.466 19.17 104.478 19.518 104.502 19.878C104.526 20.238 104.57 20.586 104.634 20.922C104.706 21.258 104.802 21.562 104.922 21.834C105.05 22.106 105.21 22.322 105.402 22.482C105.602 22.642 105.846 22.722 106.134 22.722Z" fill="#38693C"/>
<path d="M98.4914 23.442C97.8834 23.442 97.3714 23.314 96.9554 23.058C96.5394 22.794 96.2074 22.45 95.9594 22.026C95.7114 21.594 95.5314 21.122 95.4194 20.61C95.3154 20.098 95.2634 19.59 95.2634 19.086C95.2634 18.582 95.3274 18.07 95.4554 17.55C95.5914 17.03 95.7954 16.554 96.0674 16.122C96.3394 15.682 96.6794 15.33 97.0874 15.066C97.4954 14.794 97.9794 14.658 98.5394 14.658C99.1234 14.658 99.6154 14.79 100.015 15.054C100.423 15.318 100.747 15.666 100.987 16.098C101.235 16.522 101.415 16.99 101.527 17.502C101.639 18.014 101.695 18.522 101.695 19.026C101.695 19.522 101.631 20.03 101.503 20.55C101.383 21.07 101.191 21.55 100.927 21.99C100.671 22.422 100.339 22.774 99.9314 23.046C99.5314 23.31 99.0514 23.442 98.4914 23.442ZM98.5634 22.722C98.8594 22.722 99.1074 22.626 99.3074 22.434C99.5074 22.242 99.6594 21.986 99.7634 21.666C99.8754 21.338 99.9554 20.97 100.003 20.562C100.051 20.146 100.075 19.718 100.075 19.278C100.075 18.79 100.051 18.314 100.003 17.85C99.9634 17.386 99.8874 16.97 99.7754 16.602C99.6634 16.226 99.5034 15.926 99.2954 15.702C99.0954 15.478 98.8354 15.366 98.5154 15.366C98.2034 15.366 97.9434 15.462 97.7354 15.654C97.5354 15.846 97.3714 16.106 97.2434 16.434C97.1154 16.762 97.0234 17.134 96.9674 17.55C96.9194 17.958 96.8954 18.386 96.8954 18.834C96.8954 19.17 96.9074 19.518 96.9314 19.878C96.9554 20.238 96.9994 20.586 97.0634 20.922C97.1354 21.258 97.2314 21.562 97.3514 21.834C97.4794 22.106 97.6394 22.322 97.8314 22.482C98.0314 22.642 98.2754 22.722 98.5634 22.722Z" fill="#38693C"/>
<path d="M90.9361 23.25V22.59C91.1521 22.582 91.3241 22.546 91.4521 22.482C91.5881 22.418 91.6881 22.306 91.7521 22.146C91.8161 21.978 91.8481 21.742 91.8481 21.438L91.8361 16.338L90.4921 17.166L90.1201 16.578L92.7361 14.658H93.3481V21.498C93.3481 21.698 93.3441 21.89 93.3361 22.074C93.3361 22.25 93.3281 22.39 93.3121 22.494C93.4561 22.486 93.6201 22.478 93.8041 22.47C93.9961 22.462 94.1441 22.458 94.2481 22.458V23.25H90.9361Z" fill="#38693C"/>
</svg>
